<?xml version="1.0" encoding="UTF-8" standalone="no"?>
<!-- Created with Inkscape (http://www.inkscape.org/) -->

<svg
   xmlns:dc="http://purl.org/dc/elements/1.1/"
   xmlns:cc="http://creativecommons.org/ns#"
   xmlns:rdf="http://www.w3.org/1999/02/22-rdf-syntax-ns#"
   xmlns:svg="http://www.w3.org/2000/svg"
   xmlns="http://www.w3.org/2000/svg"
   xmlns:xlink="http://www.w3.org/1999/xlink"
   xmlns:sodipodi="http://sodipodi.sourceforge.net/DTD/sodipodi-0.dtd"
   xmlns:inkscape="http://www.inkscape.org/namespaces/inkscape"
   width="765"
   height="990"
   id="svg7528"
   version="1.1"
   inkscape:version="0.48.5 r10040"
   sodipodi:docname="folletitos.pdf">
  <defs
     id="defs7530">
    <inkscape:perspective
       id="perspective14"
       inkscape:persp3d-origin="267.3215 : 174.17533 : 1"
       inkscape:vp_z="534.64301 : 261.263 : 1"
       inkscape:vp_y="0 : 1000 : 0"
       inkscape:vp_x="0 : 261.263 : 1"
       sodipodi:type="inkscape:persp3d" />
    <clipPath
       clipPathUnits="userSpaceOnUse"
       id="clipPath9032">
      <rect
         style="color:#000000;fill:#ffffff;fill-opacity:1;fill-rule:nonzero;stroke:#000000;stroke-width:100;stroke-linecap:round;stroke-linejoin:round;stroke-miterlimit:4;stroke-opacity:1;stroke-dasharray:none;marker:none;visibility:visible;display:inline;overflow:visible;enable-background:accumulate"
         id="rect9034"
         width="5531.4287"
         height="6445.7139"
         x="-3222.8572"
         y="-2216.2092" />
    </clipPath>
  </defs>
  <sodipodi:namedview
     id="base"
     pagecolor="#ffffff"
     bordercolor="#666666"
     borderopacity="1.0"
     inkscape:pageopacity="0.0"
     inkscape:pageshadow="2"
     inkscape:zoom="0.35355339"
     inkscape:cx="553.78283"
     inkscape:cy="524.51222"
     inkscape:document-units="px"
     inkscape:current-layer="layer1"
     showgrid="false"
     inkscape:window-width="1366"
     inkscape:window-height="715"
     inkscape:window-x="0"
     inkscape:window-y="0"
     inkscape:window-maximized="1" />
  <metadata
     id="metadata7533">
    <rdf:RDF>
      <cc:Work
         rdf:about="">
        <dc:format>image/svg+xml</dc:format>
        <dc:type
           rdf:resource="http://purl.org/dc/dcmitype/StillImage" />
        <dc:title></dc:title>
      </cc:Work>
    </rdf:RDF>
  </metadata>
  <g
     inkscape:label="Layer 1"
     inkscape:groupmode="layer"
     id="layer1"
     transform="translate(0,-62.362183)">
    <g
       id="g10284"
       transform="translate(23.226751,22.938673)">
      <g
         id="g10764"
         transform="translate(-6.9663145,1.3607404)">
        <use
           x="0"
           y="0"
           xlink:href="#g8771"
           id="use10756"
           transform="translate(362.03867,312.5412)"
           width="765"
           height="990" />
        <use
           height="990"
           width="765"
           transform="translate(0,312.5412)"
           id="use10758"
           xlink:href="#g8771"
           y="0"
           x="0" />
        <g
           id="g8771"
           clip-path="url(#clipPath9032)"
           transform="matrix(0,0.05677391,-0.05677391,0,236.18588,245.76825)">
          <g
             id="g8678">
            <text
               xml:space="preserve"
               style="font-size:246.26075745px;font-style:normal;font-variant:normal;font-weight:bold;font-stretch:normal;text-align:center;text-anchor:middle;color:#000000;fill:#000000;fill-opacity:1;fill-rule:nonzero;stroke:none;stroke-width:2;marker:none;visibility:visible;display:inline;overflow:visible;enable-background:accumulate;font-family:Cantarell;-inkscape-font-specification:Cantarell Bold"
               x="-810.80432"
               y="179.05495"
               id="text6931"><tspan
                 sodipodi:role="line"
                 id="tspan6933"
                 x="-810.80432"
                 y="179.05495">Android</tspan></text>
            <text
               id="text7276"
               y="622.3739"
               x="492.08362"
               style="font-size:246.26075745px;font-style:normal;font-variant:normal;font-weight:bold;font-stretch:normal;text-align:center;text-anchor:middle;color:#000000;fill:#000000;fill-opacity:1;fill-rule:nonzero;stroke:none;stroke-width:2;marker:none;visibility:visible;display:inline;overflow:visible;enable-background:accumulate;font-family:Cantarell;-inkscape-font-specification:Cantarell Bold"
               xml:space="preserve"><tspan
                 y="622.3739"
                 x="492.08362"
                 id="tspan7278"
                 sodipodi:role="line">Arduino</tspan></text>
            <text
               xml:space="preserve"
               style="font-size:246.26075745px;font-style:normal;font-variant:normal;font-weight:bold;font-stretch:normal;text-align:center;text-anchor:middle;color:#000000;fill:#000000;fill-opacity:1;fill-rule:nonzero;stroke:none;stroke-width:2;marker:none;visibility:visible;display:inline;overflow:visible;enable-background:accumulate;font-family:Cantarell;-inkscape-font-specification:Cantarell Bold"
               x="-628.99463"
               y="1042.1539"
               id="text7280"><tspan
                 sodipodi:role="line"
                 id="tspan7282"
                 x="-628.99463"
                 y="1042.1539">ACM-ICPC</tspan></text>
            <text
               id="text7284"
               y="1548.2438"
               x="380.46213"
               style="font-size:246.26075745px;font-style:normal;font-variant:normal;font-weight:bold;font-stretch:normal;text-align:center;text-anchor:middle;color:#000000;fill:#000000;fill-opacity:1;fill-rule:nonzero;stroke:none;stroke-width:2;marker:none;visibility:visible;display:inline;overflow:visible;enable-background:accumulate;font-family:Cantarell;-inkscape-font-specification:Cantarell Bold"
               xml:space="preserve"><tspan
                 y="1548.2438"
                 x="380.4621"
                 id="tspan7286"
                 sodipodi:role="line">Microsoft</tspan></text>
            <text
               xml:space="preserve"
               style="font-size:246.26075745px;font-style:normal;font-variant:normal;font-weight:bold;font-stretch:normal;text-align:center;text-anchor:middle;color:#000000;fill:#000000;fill-opacity:1;fill-rule:nonzero;stroke:none;stroke-width:2;marker:none;visibility:visible;display:inline;overflow:visible;enable-background:accumulate;font-family:Cantarell;-inkscape-font-specification:Cantarell Bold"
               x="-643.37396"
               y="1987.6398"
               id="text7300"><tspan
                 sodipodi:role="line"
                 id="tspan7302"
                 x="-643.37396"
                 y="1987.6398">GNU/Linux</tspan></text>
            <text
               id="text7308"
               y="2496.7566"
               x="248.05464"
               style="font-size:246.26075745px;font-style:normal;font-variant:normal;font-weight:bold;font-stretch:normal;text-align:center;text-anchor:middle;color:#000000;fill:#000000;fill-opacity:1;fill-rule:nonzero;stroke:none;stroke-width:2;marker:none;visibility:visible;display:inline;overflow:visible;enable-background:accumulate;font-family:Cantarell;-inkscape-font-specification:Cantarell Bold"
               xml:space="preserve"><tspan
                 y="2496.7566"
                 x="248.05464"
                 id="tspan7310"
                 sodipodi:role="line">Videojuegos</tspan></text>
            <g
               id="g7470"
               transform="matrix(4.2831105,0,0,4.2831105,999.62655,144.92429)">
              <path
                 id="path7420"
                 d="m 164.203,85.47 c 0,44.655 -36.2,80.854 -80.846,80.854 -44.66,0 -80.86,-36.2 -80.86,-80.854 0,-44.645 36.2,-80.846 80.86,-80.846 44.647,0 80.846,36.2 80.846,80.846 z"
                 stroke-miterlimit="10"
                 inkscape:connector-curvature="0"
                 style="fill:#000000;stroke:none" />
              <path
                 id="path7456"
                 d="m 164.203,85.537 c 0,44.655 -36.2,80.854 -80.846,80.854 -44.66,0 -80.86,-36.2 -80.86,-80.853 0,-44.645 36.2,-80.846 80.86,-80.846 44.647,0.003 80.846,36.202 80.846,80.847 z"
                 stroke-miterlimit="10"
                 inkscape:connector-curvature="0"
                 style="opacity:0.5;fill:url(#a);stroke:url(#b);stroke-miterlimit:10" />
              <g
                 id="g7458"
                 style="fill:#ffffff">
                <path
                   id="path7460"
                   d="m 114.232,114.383 c -1.523,0 -3.08,-0.11 -4.615,-0.338 -12.85,-1.834 -21.444,-11.064 -26.258,-18.16 -4.83,7.096 -13.423,16.335 -26.27,18.167 -1.527,0.22 -3.083,0.328 -4.614,0.328 -7.99,0 -15.49,-2.973 -21.133,-8.373 -5.696,-5.444 -8.84,-12.75 -8.84,-20.54 0,-7.8 3.144,-15.096 8.848,-20.55 5.638,-5.4 13.144,-8.365 21.138,-8.365 1.523,0 3.074,0.11 4.602,0.328 12.846,1.832 21.44,11.064 26.268,18.16 4.815,-7.096 13.407,-16.325 26.258,-18.16 1.533,-0.22 3.084,-0.328 4.607,-0.328 7.99,0 15.496,2.973 21.133,8.365 5.7,5.454 8.837,12.75 8.837,20.55 0,7.79 -3.128,15.096 -8.83,20.54 -5.646,5.4 -13.14,8.376 -21.13,8.376 M 89.05,85.47 c 2.51,4.78 9.913,16.708 22.016,18.44 1.06,0.147 2.126,0.228 3.165,0.228 10.872,0 19.72,-8.373 19.72,-18.67 0,-10.297 -8.846,-18.672 -19.727,-18.672 -1.04,0 -2.106,0.074 -3.155,0.227 C 98.964,68.753 91.559,80.68 89.051,85.47 M 52.488,66.8 c -10.886,0 -19.737,8.372 -19.737,18.67 0,10.296 8.848,18.67 19.724,18.67 1.044,0 2.11,-0.08 3.17,-0.226 C 67.747,102.18 75.15,90.26 77.66,85.474 75.156,80.694 67.747,68.754 55.644,67.032 54.597,66.872 53.528,66.799 52.488,66.799"
                   inkscape:connector-curvature="0" />
                <path
                   id="path7462"
                   d="m 44.23,82.643 h 18 v 5.8 h -18 z m 78.083,0 h -6.094 V 76.54 h -5.82 v 6.103 h -6.09 v 5.8 h 6.09 v 6.1 h 5.82 v -6.1 h 6.093"
                   inkscape:connector-curvature="0" />
              </g>
            </g>
            <g
               id="g7742"
               transform="matrix(2.3913282,0,0,2.3913282,1092.796,1146.6924)">
              <path
                 style="fill:#000000;fill-opacity:1;fill-rule:nonzero;stroke:none"
                 id="path5058"
                 d="M 104.8675,104.8675 0,104.8675 0,0 l 104.8675,0 0,104.8675 z"
                 inkscape:connector-curvature="0" />
              <path
                 style="fill:#000000;fill-opacity:1;fill-rule:nonzero;stroke:none"
                 id="path5060"
                 d="m 220.65375,104.8675 -104.86625,0 0,-104.8675 104.86625,0 0,104.8675 z"
                 inkscape:connector-curvature="0" />
              <path
                 style="fill:#000000;fill-opacity:1;fill-rule:nonzero;stroke:none"
                 id="path5062"
                 d="m 104.865,220.695 -104.865,0 0,-104.8675 104.865,0 0,104.8675 z"
                 inkscape:connector-curvature="0" />
              <path
                 style="fill:#000000;fill-opacity:1;fill-rule:nonzero;stroke:none"
                 id="path5064"
                 d="m 220.65375,220.695 -104.86625,0 0,-104.8675 104.86625,0 0,104.8675 z"
                 inkscape:connector-curvature="0" />
            </g>
            <g
               style="stroke:#000000;overflow:visible"
               id="g7795"
               transform="matrix(1.467919,0,0,1.467919,-2284.0285,1396.5307)">
              <g
                 transform="translate(0.1369881,-1.4614463)"
                 id="g2385"
                 style="stroke:#000000">
                <g
                   id="Layer_1"
                   transform="translate(0,42.000121)"
                   style="stroke:#000000">
                  <g
                     id="g5"
                     style="stroke:#000000">
                    <path
                       style="fill-rule:evenodd;stroke:#000000"
                       d="m 112.993,304.372 c -3.634,0.247 -8.365,1.875 -11.539,7.564 -2.591,4.646 -8.661,5.387 -11.495,4.451 -4.721,-1.56 -10.755,-2.642 -16.6,1.523 -5.845,4.164 -12.157,1.015 -11.05,-6.576 1.107,-7.59 3.849,-14.351 11.127,-18.538 15.895,-9.144 4.848,-15.508 13.572,-24.685 8.741,-9.195 6.81,-12.009 6.52,-24.497 C 63.985,239.176 47.241,230.661 28.544,207.301 9.847,183.94 2.599,164.711 0.661,135.423 -1.277,106.135 0.403,87.154 13.057,62.843 25.711,38.532 39.034,26.829 62.122,14.69 85.21,2.553 107.832,-0.354 128.742,0 c 20.91,0.353 34.843,1.885 46.658,8.626 11.814,6.741 22.622,15.224 29.512,15.285 6.891,0.061 11.582,-1.744 14.931,-4.31 0.894,22.703 -19.539,24.675 -37.819,25.155 -18.281,0.479 -29.514,-7.083 -46.351,-4.27 -16.837,2.813 -44.404,10.475 -57.833,33.85 -13.429,23.375 -13.887,31.638 -12.771,51.24 1.116,19.603 17.988,34.228 27.512,34.387 9.523,0.159 11.649,-2.599 19.985,-8.036 8.337,-5.438 50.896,-58.122 65.418,-69.956 14.523,-11.834 28.854,-15.488 44.328,-15.678 15.474,-0.19 19.428,0.335 31.908,5.45 12.48,5.114 20.149,14.533 30.211,20.291 5.143,-3.027 8.338,-7.547 13.057,-10.996 16.877,-12.335 25.646,-15.659 45.705,-13.707 11.529,1.122 26.066,7.708 34.74,15.25 15.445,13.429 28.205,32.125 38.516,46.328 8.029,11.061 17.477,24.295 30.965,28.432 14.727,4.515 25.809,-14.559 27.436,-25.139 0.922,-5.995 2.125,-11.249 2.135,-17.847 0.01,-6.599 -0.664,-14.607 -2.566,-21.484 -1.902,-6.877 -5.16,-13.72 -8.688,-19.394 -5.742,-9.235 -15.137,-18.899 -24.912,-23.871 -5.486,-2.79 -18.393,-7.863 -26.529,-8.041 -9.969,-0.216 -17.564,3.133 -26.781,3.761 -11.156,0.761 -31.084,3.269 -39.83,-5.35 -5.566,-5.485 -6.266,-9.144 -7.217,-16.296 2.459,2.026 5.898,3.358 8.959,3.617 6.986,0.59 13.527,-5.114 19.166,-8.419 4.645,-2.723 11.223,-7.589 17.324,-10.048 15.676,-6.32 34.932,-6.138 51.48,-4.445 13.264,1.356 30.461,7.257 42.094,13.84 11.688,6.612 22.951,17.761 31.201,28.271 10.379,13.224 16.053,24.57 19.812,41.063 4.805,21.062 6.137,52.702 0.328,73.469 -4.578,16.365 -19.779,41.504 -32.719,53.827 -12.762,12.155 -27.498,18.022 -44.256,21.231 0.656,3.382 0.764,6.536 1.631,9.309 1.232,3.936 3.588,8.324 8.428,6.936 1.93,-0.553 2.963,-1.032 5.508,1.194 2.543,2.226 1.219,10.825 -5.938,14.684 -3.629,1.957 -7.459,2.382 -13.271,2.498 -5.812,0.116 -14.883,0.141 -21.193,-0.964 -6.309,-1.104 -10.078,-6.111 -17.066,-6.895 -10.799,-1.208 -19.068,-9.01 -27.727,-14.59 -3.613,-2.329 -4.832,-2.353 -6.914,-3.53 1.125,3.444 2.625,7.021 3.373,10.332 0.75,3.311 0.43,6.378 0.828,9.028 0.396,2.648 1.131,4.707 1.559,6.855 1.73,1.547 2.283,3.9 5.189,4.64 2.908,0.739 7.461,-0.412 10.436,-0.812 2.975,-0.4 4.969,-2.021 7.303,-1.577 2.336,0.443 4.549,2.115 6.506,3.682 1.957,1.567 3.639,1.796 5.223,5.706 1.584,3.91 3.037,11.917 3.254,17.269 0.217,5.352 -0.383,10.183 -1.969,14.43 -1.586,4.247 -2.98,6.13 -7.275,10.336 -4.295,4.207 -11.289,10.38 -18.268,14.68 1.285,1.903 1.855,3.645 3.859,5.71 2.004,2.066 6.182,4.381 8.041,6.56 1.857,2.179 2.799,3.742 2.826,6.186 0.029,2.443 -0.09,5.619 -2.074,8.283 -4.941,6.633 -10.785,7.821 -17.891,10.941 1.195,7.462 2.17,12.793 0.443,20.244 -0.705,3.036 -2.271,9.92 -6.016,11.686 -3.746,1.766 -10.969,0.911 -15.541,1.637 -4.572,0.727 -7.131,1.417 -10.695,2.125 -2.166,3.131 -5.391,6.586 -6.496,9.392 -1.107,2.807 -0.773,3.813 0.156,6.679 0.929,2.866 4.092,7.039 4.988,10.395 0.896,3.356 1.07,6.969 0.234,10.334 -0.838,3.365 -2.271,5.807 -5.139,8.795 -2.867,2.989 -8.508,5.336 -11.318,7.758 -2.812,2.423 -5.611,2.714 -4.844,6.723 1.055,5.506 9.1,14.436 14.92,16.562 3.488,1.275 8.17,0.873 12.406,-0.915 -0.287,4.703 -4.357,7.873 -7.016,10.996 7.201,-2.059 14.184,-6.001 19.014,-11.226 -1.498,4.538 -6.652,11.823 -14.361,18.22 -7.709,6.397 -7.662,5.088 -11.494,7.633 6.992,1.405 13.494,1.025 18.91,0.052 -2.969,1.637 -7.836,3.939 -14.283,4.616 -6.447,0.676 -10.422,0.198 -16.232,-1.213 -5.811,-1.412 -11.115,-6.694 -18.156,-10.335 0.686,2.612 1.174,5.753 4.135,8.439 2.961,2.686 7.441,4.052 12.203,6.375 -6.062,-0.688 -12.432,-0.896 -18.389,-2.209 -4.41,-0.973 -7.373,-2.005 -10.6,-3.603 -3.225,-1.598 -5.715,-3.929 -8.572,-5.893 1.369,2.615 1.775,5.691 4.105,7.847 2.33,2.156 6.117,2.959 9.18,4.44 -3.195,-0.07 -6.268,0.623 -9.58,-0.21 -3.314,-0.833 -6.422,-2.142 -9.867,-4.68 -3.445,-2.538 -6.998,-5.663 -9.938,-8.858 -2.938,-3.195 -6.566,-7.337 -7.664,-10.283 -1.1,-2.947 0.66,-5.008 0.99,-7.509 -2.029,1.333 -4.525,2.067 -6.084,4.002 -1.559,1.935 -2.941,3.702 -2.251,7.075 0.691,3.373 3.804,7.496 6.005,11.248 -6.568,-5.371 -10.236,-7.439 -11.799,-13.918 -1.463,-6.066 2.322,-11.572 5.199,-16.159 1.429,-2.278 3.567,-4.398 4.903,-6.597 -2.967,-2.903 -6.358,-5.398 -8.901,-8.709 -2.542,-3.31 -3.61,-7.79 -6.205,-10.957 -2.596,-3.168 -6.088,-5.173 -9.129,-7.756 2.673,5.742 7.066,12.785 8.02,17.229 0.953,4.444 -1.069,7.164 -2.646,9.563 -1.578,2.399 -4.124,2.934 -6.539,4.408 -2.415,1.475 -6.171,0.312 -7.61,2.501 -1.438,2.188 -1.824,5.48 -0.449,7.648 l 5.64,8.902 c -2.078,-1.049 -5.658,-4.1 -7.272,-6.264 -1.614,-2.164 -4.09,-4.163 -4.429,-7.089 -0.339,-2.925 -0.504,-5.464 1.391,-8.07 1.896,-2.605 7.086,-3.477 9.409,-5.48 2.323,-2.003 3.626,-3.307 3.493,-5.896 -0.132,-2.589 -2.661,-4.441 -4.835,-6.073 -6.637,-4.978 -15.151,-9.565 -20.787,-15.565 -3.184,-3.39 -4.712,-6.127 -5.352,-8.466 -0.639,-2.338 0.037,-4.162 1.619,-7.038 1.582,-2.877 7.007,-6.718 7.667,-9.843 0.659,-3.124 -2.081,-3.795 -4.554,-4.897 -2.473,-1.102 -7.17,0.565 -9.464,-1.352 -2.293,-1.917 0.674,-5.945 -1.911,-8.154 -2.584,-2.209 -8.499,-0.976 -11.552,-3.352 -3.053,-2.377 -4.315,-5.327 -5.367,-8.775 -1.052,-3.448 -1.171,-7.225 -0.458,-9.722 0.713,-2.497 2.855,-2.934 4.147,-4.228 1.292,-1.294 2.413,-2.367 0.691,-4.297 -1.722,-1.929 -7.365,0.108 -10.609,-2.369 -3.244,-2.477 -1.258,-8.41 -3.552,-10.911 -2.293,-2.501 -6.409,-1.522 -8.581,-2.321 -2.171,-0.799 -3.023,2.02 -4.355,-2.438 -1.332,-4.459 -1.368,-17.75 -3.16,-22.71 -1.792,-4.96 -5.311,-0.335 -6.945,-5.265 -1.634,-4.929 -0.085,-12.812 -0.821,-20.257 l -3.335,-20.257 c -11.634,7.815 -19.314,10.269 -31.813,12.477 -1.043,30.582 -3.916,48.591 6.464,82.52 10.38,33.928 31.387,53.924 59.726,82.649 -37.395,-28.016 -55.248,-50.792 -66.422,-79.97 -11.176,-29.182 -9.03,-53.586 -7.906,-81.686 z M 311.701,292.08 c 2.877,0.129 6.373,0.859 8.393,2.171 2.021,1.312 4.166,2.384 6,4.251 4.576,4.66 8.008,10.28 9.525,16.738 0.967,4.117 1.111,9.397 1.463,14.231 -1.385,-4.468 -2.316,-9.127 -4.289,-13.13 -3.111,-6.312 -8.396,-12.473 -14.959,-15.31 -2.166,-0.938 -3.611,-0.764 -4.803,-0.598 0.533,0.895 1.426,1.645 1.465,2.956 0.039,1.311 -0.254,3.876 -2.477,4.954 -3.584,1.739 -7.568,0.516 -10.336,-1.931 -2.791,-2.466 -3.742,-6.638 -2.281,-10.223 1.741,-4.272 8.375,-4.283 12.299,-4.109 z M 275.629,286 c 0.361,-7.345 3.012,-13.539 9.594,-17.141 3.404,-1.862 8.648,-4.27 13.467,-4.836 4.629,-0.543 15.889,-0.146 22.662,2.945 5.201,2.374 8.744,6.07 13.311,8.771 4.566,2.702 7.814,4.513 12.162,7.543 6.674,4.651 10.586,9.772 15.213,12.842 2.225,1.475 5.355,1.256 8.309,2.158 -2.297,0.682 -5.299,1.434 -7.777,0.642 -3.09,-0.988 -7.41,-3.813 -9.807,-5.838 -4.236,-3.578 -6.432,-5.324 -11.055,-8.023 -2.76,-1.608 -7.305,-3.503 -10.338,-5.481 -3.035,-1.978 -8.303,-6.318 -11.219,-7.787 -3.707,-1.866 -10.381,-2.904 -14.508,-2.783 -5.686,0.166 -13.916,1.104 -18.316,5.096 -4.371,3.968 -6.031,7.459 -5.045,12.612 1.646,-1.896 2.742,-4.278 4.391,-5.688 3.416,-2.918 7.336,-3.059 11.588,-2.506 4.777,0.622 7.182,3.381 8.76,7.916 -1.062,-0.78 -3.014,-2.493 -4.555,-3.024 -3.617,-1.248 -6.352,-0.864 -9.74,0.953 -4,2.146 -2.912,5.322 -3.488,8.854 -0.264,1.629 -0.879,2.941 -1.318,4.412 -1.504,-0.398 -2.895,-1.024 -4.033,-2.152 0.047,1.65 -0.193,3.093 0.145,4.949 0.336,1.855 1.24,4.059 1.859,6.088 -2.785,-2.786 -5.635,-5.38 -7.434,-8.977 -1.801,-3.599 -3.021,-7.593 -2.828,-11.545 z m 4.82,-53.46 c 2.053,-3.047 2.654,-7.721 3.92,-11.521 -0.506,4.813 0.467,10.106 -1.883,13.592 -2.35,3.486 -6.477,2.875 -9.896,3.889 2.66,-2.028 5.805,-2.913 7.859,-5.96 z m -49.151,71.368 c 2.636,-2.134 9.75,-0.428 15.071,-0.047 -3.824,0.979 -7.648,1.959 -11.472,2.938 -0.356,1.301 -0.195,2.792 -1.068,3.901 -0.874,1.11 -2.534,1.521 -3.8,2.28 0.125,-3.418 -1.367,-6.939 1.269,-9.072 z m 37.491,-148.22 c 3.176,1.71 7.207,3.971 10.012,4.041 2.805,0.07 3.539,-1.834 5.189,-2.933 2.596,8.465 5.576,17.766 9.996,25.447 1.852,3.218 3.033,1.722 4.441,4.956 1.406,3.233 2.031,9.812 3.365,13.943 1.336,4.131 3.078,7.171 4.617,10.756 -3.908,-5.537 -8.957,-12.597 -11.135,-17.205 -2.176,-4.607 -0.783,-5.008 -2.545,-9.396 -1.762,-4.388 -5.324,-11.228 -7.986,-16.842 -1.906,0.253 -4.266,0.6 -5.715,0.153 -1.449,-0.447 -1.16,-1.988 -2.469,-2.984 -1.311,-0.996 -3.514,-0.61 -5.35,-2.2 -1.836,-1.589 -2.254,-4.85 -2.42,-7.736 z m -17.101,41.769 c 2.989,-0.262 6.701,0.539 9.5,0.38 2.799,-0.159 4.797,-0.885 7.196,-1.328 -0.445,-4.216 -0.023,-11.962 -3.915,-14.777 -2.514,-1.818 -12.839,-0.449 -15.597,0.146 -6.206,1.338 -13.433,5.042 -19.435,7.358 5.752,-4.018 10.721,-7.742 17.62,-9.816 4.147,-1.247 13.825,-2.868 18.105,-1.712 1.954,0.527 2.349,1.336 3.534,2.992 4.074,5.688 4.062,10.604 5.119,17.23 1.039,1.619 2.146,2.699 2.988,4.369 0.84,1.67 1.316,4.298 1.551,6.446 -1.066,-1.546 -0.414,-3.485 -3.367,-4.636 -2.955,-1.151 -7.479,-0.076 -11.46,0.34 2.902,2.094 4.344,4.111 4.455,8.538 0.13,5.198 -4.271,8.939 -8.866,9.295 -6.379,0.495 -9.668,-0.906 -12.248,-6.358 -1.13,-2.388 -0.311,-5.261 -0.405,-7.589 -7.665,0.533 -7.54,0.283 -13.142,4.954 3.045,4.461 4.963,7.026 9.995,9.695 2.822,1.498 6.017,2.954 9.514,3.549 3.498,0.595 9.235,1.17 12.909,0.606 3.675,-0.564 5.757,-1.613 8.481,-4.132 2.725,-2.52 2.975,-6.128 4.039,-8.98 -0.242,2.745 -0.557,6.241 -1.576,8.232 -3.1,6.053 -8.461,7.847 -14.862,7.867 -6.144,0.02 -13.744,-1.397 -19.46,-3.767 -4.57,-1.894 -12.146,-7.258 -13.944,-11.918 -1.229,-3.184 -0.256,-7.091 -0.385,-10.637 6.328,-4.208 7.894,-3.173 15.381,-4.405 3.132,-0.516 5.286,-1.679 8.275,-1.942 z m -36.861,-28.501 c 0.178,-2.521 0.457,-2.467 0.686,-3.701 -5.765,-1.542 -8.077,2.198 -11.457,9.144 -1.265,2.599 -0.013,4.146 -1.37,5.857 -1.355,1.711 -3.539,1.471 -5.74,3.114 -2.201,1.642 -4.382,4.787 -6.44,6.488 -4.223,3.491 -9.931,5.622 -14.829,7.971 3.345,-2.468 9.836,-6.211 11.936,-9.797 1.114,-1.901 0.949,-5.486 2.683,-7.195 1.733,-1.71 2.34,-2.893 4.578,-3.329 2.238,-0.436 1.338,-3.03 2.06,-5.092 0.722,-2.062 2.16,-3.526 3.69,-5.586 1.53,-2.06 3.46,-5.153 6.481,-6.276 3.021,-1.124 7.732,0.091 10.019,-0.556 2.286,-0.647 0.973,-2.309 2.634,-3.307 1.663,-0.998 4.896,-0.558 7.117,-1.625 3.937,-1.893 5.82,-5.053 8.188,-8.436 0.344,7.282 0.26,12.525 -2.357,19.376 -2.947,7.711 -5.934,12.253 -14.298,16.995 -2.882,1.633 -5.75,2.2 -8.139,3.057 1.393,-1.9 3.387,-2.725 4.18,-5.7 0.791,-2.977 0.2,-8.88 0.378,-11.402 z m 135.038,35.507 c -3.977,0.259 -4.92,-0.264 -8.102,1.98 1.725,2.684 3.449,5.368 5.172,8.052 -0.152,-5.298 0.364,-6.36 2.93,-10.032 z m -10.42,-3.85 c 5.508,-2.346 10.307,-4.244 16.299,-4.619 2.402,-0.151 6.131,0.221 8.557,0.331 2.066,-3.042 4.699,-5.441 5.664,-8.913 0.639,-2.303 0.324,-12.992 -0.807,-15.767 -3.295,-8.076 -6.498,-8.417 -11.033,-13.043 -3.291,-3.355 -3.422,-8.464 -4.406,-14.189 -0.361,-2.103 -1.393,-4.764 -1.877,-6.934 -5.928,-0.999 -12.303,-1.328 -19.123,-0.987 3.307,-3.172 6.504,-6.07 7.453,-10.832 0.947,-4.762 0.176,-10.617 -2.531,-14.887 -2.707,-4.27 -7.031,-7.99 -11,-11.469 -3.971,-3.479 -9.662,-6.351 -13.424,-9.197 4.893,-1.752 9.889,-4.326 14.682,-5.255 12.486,-2.422 23.244,1.282 35.287,8.563 7.002,4.235 12.793,8.258 20.113,15.921 7.318,7.662 16.395,21.717 23.48,30.052 7.085,8.335 12.805,14.927 18.986,19.898 6.182,4.972 11.777,6.388 17.664,9.581 l 9.176,9.744 7.426,-9.189 11.949,1.351 2.469,-13.412 10.967,-3.005 -1.789,-18.08 7.885,-5.596 -5.926,-11.249 6.021,-12.292 -7.85,-14.051 3.027,-13.529 -9.088,-7.745 -1.186,-14.377 -12.678,-4.836 -5.086,-12.508 -14.254,-0.16 -6.992,-9.285 -9.596,0.672 -10.697,-1.165 -6.049,-4.466 -8.779,5.828 -10.623,-5.539 -21.117,8.017 13.766,-11.972 14.262,-2.278 10.926,-2.785 14.756,4.846 12.988,-3.29 12.523,7.403 13.252,-0.733 6.51,11.681 13.195,1.523 7.139,12.987 8.299,4.531 2.203,16.637 7.391,7.01 -3.25,14.557 8.707,11.024 -8.164,11.812 8.73,7.383 -11.16,9.891 11.303,11.771 -13.65,4.402 8.891,12.625 -11.15,1.924 7.312,13.882 -12.566,-0.167 6.33,10.398 -13.783,-1.659 3.297,14.959 -10.416,-9.163 -3.568,18.13 -7.188,-13.018 -3.893,16.237 -8.873,-11.973 0.242,17.026 -9.807,-15.309 c 2.068,8.686 1.654,18.197 7.359,26.386 17.676,-2.392 29.229,-6.846 42.771,-19.877 12.334,-11.868 27.076,-36.613 31.068,-52.308 4.555,-17.91 4.695,-50.85 0.209,-69.084 C 522.282,71.848 516.67,63.462 506.643,49.136 497.059,38.957 487.633,28.204 475.469,20.945 457.613,10.29 434.717,7.417 414.367,7.694 c -11.268,0.154 -18.816,2.318 -25.553,4.768 -11.781,4.284 -21.203,13.629 -33.18,18.247 -3.906,1.505 -7.037,1.552 -10.113,-0.091 3.012,6.026 6.289,8.729 13.801,10.922 5.434,1.586 18.4,0.583 27.326,-0.241 9.582,-0.885 14.58,-3.734 27.621,-3.555 12.736,0.175 22.828,5.013 28.346,8.168 11.385,6.51 19.549,13.732 26.643,25.172 3.896,6.282 6.625,13.37 8.547,20.603 1.922,7.233 2.764,15.334 2.887,22.415 0.123,7.081 -0.418,13.402 -2.15,19.774 -4.051,14.918 -12.988,30.098 -31.346,27.753 -11.234,-1.436 -28.17,-22.522 -33.842,-30.258 C 401.909,115.758 390.133,98.481 375.752,85.479 366.984,77.554 354.979,72.1 343.19,71.021 c -22.117,-2.024 -28.676,2.177 -45.324,15.899 3.387,1.08 6.693,1.676 10.164,3.24 7.703,3.471 14.748,7.957 20.893,13.711 6.439,6.031 9.328,9.848 9.557,18.484 0.152,5.735 -4.566,10.333 -8.891,14.469 -2.646,2.533 -6.148,4.852 -8.291,6.818 -2.84,2.609 -6.357,5.463 -2.789,9.619 1.342,1.562 3.672,2.74 5.637,4.199 3.119,2.315 1.691,10.919 -2.418,13.201 -5.258,2.917 -11.541,2.591 -15.877,-1.314 5.473,-0.819 8.949,-1.545 8.807,-6.022 -0.082,-2.595 -3.381,-4.751 -6.619,-6.227 -7.809,-3.56 -13.707,-3.035 -21.479,-8.627 -7.85,-5.651 -8.023,-8.745 -10.145,-17.617 -3.785,0.396 -7.27,0.483 -12.331,2.159 -5.061,1.675 -10.654,5.663 -15.249,6.65 -11.572,2.49 -13.878,1.752 -20.211,0.113 -11.15,-2.886 -25.668,2.055 -40.09,6.668 -2.398,0.767 -12.097,0.026 -18.626,2.317 -10.084,3.538 -24.233,12.106 -32.405,18.988 -12.382,10.429 -28.654,41.64 -37.848,77.464 -0.966,10.89 2.131,18.227 -4.729,23.546 -6.86,5.319 -6.67,18.946 -8.996,22.768 -2.326,3.821 -5.019,2.132 -10.026,7.499 -5.007,5.367 -7.556,4.47 -7.43,14.618 4.315,-2.837 10.606,-6.135 16.13,-6.334 4.892,-0.177 4.944,6.264 17.5,-6.149 6.715,-6.641 19.616,-6.844 28.567,-9.773 8.952,-2.929 25.083,-8.965 41.239,-27.027 16.156,-18.062 23.887,-37.077 27.02,-64.567 0.499,4.874 1.365,10.371 -0.722,23.816 -2.087,13.445 -6.585,28.546 2.891,46.634 l 5.904,11.269 c -3.515,-4.797 -10.381,-12.622 -12.448,-18.198 l -4.768,-12.863 c -10.667,16.748 -13.119,19.744 -27.937,31.743 -0.59,7.444 -0.735,15.208 1.698,22.331 2.433,7.122 -1.445,15.332 0.406,20.023 1.851,4.691 6.132,2.021 7.53,6.77 1.398,4.749 -0.73,14.138 1.438,18.767 2.168,4.629 7.487,1.82 10.065,3.315 2.578,1.496 3.421,3.546 4.8,5.513 1.378,1.966 -0.539,6.614 2.265,8.123 2.803,1.51 7.176,0.231 10.093,1.68 2.917,1.449 3.36,4.932 2.661,8.053 -0.7,3.121 -3.817,4.553 -5.186,7.726 -1.368,3.174 -1.215,5.383 0.429,8.297 1.644,2.915 5.284,4.52 8.912,5.991 3.628,1.471 8.726,0.645 12.47,2.679 3.744,2.034 7.109,6.087 9.086,9.033 1.977,2.945 2.526,5.023 2.425,8.12 -0.102,3.096 -1.358,6.663 -3.011,9.654 -1.653,2.991 -5.3,6.631 0.394,12.343 5.694,5.711 5.484,3.249 8.746,6.954 -0.355,-6.409 -3.003,-11.63 -1.067,-16.455 1.937,-4.825 7.752,-5.664 10.817,-7.834 3.065,-2.171 4.83,-5.153 7.246,-7.729 -0.035,3.315 0.32,6.879 -0.057,9.375 -0.768,5.075 -2.266,9.58 5.297,10.394 3.407,0.366 6.642,-1.843 10.227,-3.169 -1.878,3.363 -5.144,6.067 -5.635,10.092 -0.491,4.023 0.099,8.443 2.885,12.436 2.787,3.991 7.599,6.955 11.125,9.301 3.525,2.347 5.414,2.535 8.123,3.804 0.133,3.956 -0.646,8.143 -0.195,11.869 0.451,3.726 1.625,7.024 3.779,10.104 2.156,3.081 5.613,4.848 8.869,7.126 -1.785,-4.157 -5.406,-8.101 -5.357,-12.471 0.049,-4.369 1.359,-7.466 5.621,-11.343 4.262,-3.878 14.24,-7.241 18.945,-11.011 4.705,-3.771 6.223,-6.081 7.912,-9.742 1.689,-3.661 1.219,-9.559 1.531,-12.85 1.549,4.61 1.77,6.043 2.273,10.866 0.506,4.824 -2.811,11.59 -4.215,15.161 5.82,-2.811 9.514,-7.304 11.379,-11.695 1.248,0.74 0.619,2.769 1.078,6.679 2.074,-2.064 4.432,-3.652 6.52,-5.6 2.09,-1.946 4.379,-3.658 5.416,-6.375 1.035,-2.717 0.611,-5.606 -0.16,-8.763 -0.771,-3.157 -4.299,-6.818 -6.199,-10.271 -1.898,-3.452 0.336,-6.841 0.207,-11.001 -3.801,-0.653 -7.029,-2.589 -11.398,-1.96 -4.371,0.628 -9.377,5.533 -13.844,5.59 -4.467,0.057 -6.975,-4.128 -10.637,-5.278 -3.662,-1.15 -7.367,-1.024 -11.049,-1.536 4.664,-4.468 22.766,-6.596 35.148,-8.615 10.895,-1.777 21.707,-2.804 32.746,-2.959 4.93,-0.07 11.266,1.558 14.689,0.574 3.426,-0.982 2.695,-3.315 3.711,-5.858 2.842,-7.108 1.441,-13.438 -0.105,-20.596 -9.91,-1.162 -20.236,-2.584 -30.221,-1.817 -9.762,0.75 -21.322,5.391 -31.391,5.705 -8.754,0.272 -21.717,-1.677 -29.234,-6.259 -9.186,-5.599 -16.293,-17.624 -18.816,-21.485 -4.109,-6.289 -9.292,-18.627 -12.446,-24.268 -3.152,-5.641 -3.847,-7.219 -6.47,-9.574 -2.623,-2.354 -6.216,-2.536 -9.323,-3.805 3.582,0.366 7.493,-0.768 10.747,1.098 4.889,2.805 10.361,14.431 13.403,19.49 3.223,-10.804 2.471,-15.052 11.797,-21.144 -7.516,8.424 -7.703,14.805 -9.535,24.723 6.25,10.258 14.939,26.598 26.309,31.132 4.107,1.639 11.16,2.667 15.6,3.216 13.818,1.711 27.146,-2.668 40.717,-6.019 9.92,-2.45 19.986,-1.463 32.051,-0.754 4.096,0.24 13.754,-2.224 15.754,-6.367 1.08,-2.235 1,-4.921 -0.551,-7.303 -1.553,-2.382 -5.689,-3.534 -7.906,-5.678 -2.217,-2.144 -3.492,-4.689 -5.238,-7.034 -9.215,1.768 -16.795,2.447 -23.635,2.633 4.906,-2.021 9.613,-3.174 14.719,-5.171 5.106,-1.997 10.904,-5.275 15.025,-7.995 4.121,-2.721 6.752,-4.299 9.734,-7.465 2.98,-3.168 6.803,-6.431 9,-10.303 2.199,-3.872 2.539,-8.203 2.662,-12.995 0.123,-4.791 -0.084,-11.514 -1.932,-15.374 -1.846,-3.859 -5.406,-5.03 -8.266,-5.943 -2.861,-0.913 -4.82,1.396 -7.795,1.708 -2.977,0.312 -5.758,2.188 -10.062,0.164 -4.304,-2.024 -9.406,-6.144 -13.758,-12.259 -4.35,-6.116 -7.461,-16.112 -11.896,-23.802 -7.645,-13.256 -17.172,-25.639 -26.283,-37.922 -0.75,-3.029 -1.877,-7.215 -2.252,-11.324 -0.654,-7.16 -0.777,-14.598 1.445,-21.578 1.703,-5.347 4.18,-10.995 9.779,-13.188 2.24,-0.878 5.074,-1.226 7.076,-0.484 2.004,0.741 3.969,3.002 3.182,5.614 -0.865,2.872 -2.855,2.95 -4.207,4.4 -2.295,2.46 -3.213,4.265 -4.08,7.332 2.48,-0.04 5.832,-0.229 7.869,0.307 2.658,0.7 5.133,2.462 6.482,6.228 -3.172,-2.813 -4.748,-4.104 -8.707,-4.204 -1.814,-0.045 -4.018,0.604 -6.025,0.906 -0.75,2.44 -1.191,5.432 -2.25,7.32 -1.059,1.888 -3.121,1.435 -3.895,3.641 -0.774,2.202 -0.819,5.788 -0.429,8.683 z m 27.715,-3.307 c 1.215,0.479 1.678,0.584 3.217,1.755 1.539,1.171 3.662,2.34 4.881,5.138 1.221,2.799 1.164,7.127 0.904,8.89 -1.07,-0.314 -2.529,-0.102 -3.639,-1.051 -1.107,-0.949 -1.768,-3.098 -3.188,-4.018 -1.422,-0.919 -2.607,-0.718 -4.178,-0.917 0.807,2.296 1.199,4.593 0.824,6.675 -0.814,4.545 -3.486,6.847 -7.812,7.391 -1.889,0.237 -4.889,-0.385 -6.533,-0.684 0.762,1.702 2.053,3.193 2.816,4.895 3.658,-0.529 6.369,-0.454 8.336,-1.374 1.967,-0.92 4.076,-2.981 6.6,-3.854 2.525,-0.873 4.777,-0.859 7.539,-1.29 -2.176,1.875 -3.604,3.751 -5.777,5.626 1.594,4.633 3.188,9.265 4.781,13.897 3.379,2.114 6.549,3.228 10.807,5.838 4.26,2.611 9.367,7.281 14.914,9.828 5.547,2.547 8.85,3.933 14.646,5.026 5.795,1.093 10.406,5.787 16.109,6.55 5.703,0.763 16.355,0.917 20.75,0.488 4.99,-0.487 11.473,-3.062 12.055,-8.533 -4.184,1.032 -10.574,0.106 -13.801,-7.767 -1.432,-3.496 -0.73,-9.925 -2.922,-14.059 -2.191,-4.135 -5.246,-5.462 -8.896,-10.556 -3.65,-5.094 -9.621,-13.129 -12.973,-19.954 -3.35,-6.824 -4.139,-14.554 -6.973,-20.669 -2.834,-6.114 -7.109,-11.053 -10.422,-15.766 -7.234,-10.3 -13.068,-17.339 -24.986,-22.535 -5.732,-2.499 -12.258,-3.165 -18.387,-4.748 -2.494,1.117 -5.914,2.351 -6.521,5.268 -0.607,2.917 0.559,7.225 2.676,9.415 3.543,3.661 8.793,7.618 10.857,13.437 1.326,3.734 1.711,16.252 0.562,19.649 -1.192,3.527 -3.963,5.66 -6.266,8.009 z m 1.154,29.629 c -1.107,0.955 -1.951,1.936 -3.732,2.729 -1.779,0.793 -4.209,0.998 -6.57,1.588 3.311,5.154 6.789,10.362 9.961,15.781 3.174,5.418 5.924,11.351 8.953,17.025 -0.143,-3.252 0.049,-6.719 -0.424,-9.758 -0.473,-3.038 -1.85,-5.697 -3.215,-10.258 -1.363,-4.561 -3.041,-10.766 -4.973,-17.107 z M 279.229,113.611 c -0.467,5.07 0.391,12.996 1.441,17.96 1.258,5.942 2.469,9.023 7.291,12.603 8.83,6.555 14.467,5.45 21.26,9.251 3.232,1.809 7.328,4.841 8.523,8.046 1.195,3.205 -0.789,6.685 -3.24,8.053 4.287,0.638 9.094,-4.195 7.088,-9.157 -0.988,-2.442 -5.691,-3.53 -7.133,-5.994 -1.439,-2.463 -1.436,-4.999 -0.758,-7.501 1.225,-4.51 10.148,-8.608 13.301,-12.173 4.852,-5.486 6.715,-10.075 3.967,-17.14 -3.859,-9.925 -18.768,-17.889 -27.691,-21.784 -4.086,-1.783 -6.377,-1.91 -9.564,-2.865 6.525,3.824 13.404,6.87 16.705,15.418 2.756,7.139 0.369,9.829 0.461,16.045 0.043,2.882 3.838,4.323 5.523,6.144 1.467,1.583 1.348,2.758 0.176,4.943 -0.129,-1.971 -0.971,-3.442 -2.484,-4.513 -2.498,-1.771 -5.189,-1.39 -6.52,-5.021 -2.02,-5.52 1.986,-10.748 -2.518,-16.946 -3.369,-4.637 -7.85,-9.827 -13.895,-9.963 -2.861,-0.065 -5.012,0.367 -8.068,1.271 l -4.074,-4.903 -0.094,-0.064 C 270.639,87.758 264.969,81.525 253.344,76.327 241.719,71.13 235.99,70.343 222.661,70.639 c -13.329,0.295 -26.557,1.41 -41.995,14.723 -15.437,13.313 -55.224,64.292 -64.873,70.744 -9.648,6.452 -11.785,8.638 -23.841,8.641 C 79.896,164.75 61.08,147.697 60.343,126.385 59.605,105.072 59.309,97.497 74.124,71.822 88.94,46.146 115.78,38.262 135.694,35.6 c 19.915,-2.662 31.882,4.352 46.613,4.385 14.73,0.034 29.288,-2.509 33.581,-14.224 -2.101,1.251 -4.916,2.661 -12.832,2.246 C 195.14,27.592 184.164,18.427 171.817,12.286 159.47,6.146 145.73,5.427 128.107,5.094 110.484,4.761 88.494,6.108 66.708,17.869 44.922,29.63 30.051,42.109 17.415,65.127 4.779,88.146 2.891,106.94 4.928,134.811 c 2.037,27.871 10.633,48.599 27.184,68.998 16.551,20.399 33.092,30.38 62.918,34.091 l 6.279,-27.696 -11.209,16.086 0.277,-17.891 -10.139,12.581 -4.447,-17.062 -8.214,13.679 -4.08,-19.05 -11.903,9.627 3.768,-15.719 -15.75,1.743 7.235,-10.926 -14.361,0.175 L 40.842,168.86 28.1,166.837 38.26,153.57 22.66,148.945 35.576,136.577 22.823,126.184 32.798,118.426 23.47,106.014 33.42,94.431 29.706,79.135 38.155,71.77 40.67,54.289 50.152,49.527 58.31,35.881 73.389,34.28 l 7.44,-12.274 15.145,0.771 14.312,-7.779 14.843,3.457 16.86,-5.092 12.487,2.926 16.296,2.395 15.733,12.58 -24.133,-8.424 -12.14,5.821 -10.035,-6.125 -6.909,4.693 -12.225,1.224 -10.963,-0.708 -7.992,9.756 -16.291,0.168 -5.811,13.143 -14.486,5.082 -1.355,15.107 -10.388,8.138 3.461,14.216 -8.971,14.765 6.882,12.915 -6.773,11.82 9.011,5.88 -2.044,18.998 12.532,3.158 2.823,14.093 13.656,-1.419 8.484,9.656 10.486,-10.239 c 19.116,-9.532 26.988,-14.864 41.886,-30.977 16.959,-18.343 26.679,-35.302 49.269,-47.861 16.202,-9.008 29.417,-12.25 47.617,-9.105 17.088,2.952 22.81,13.202 35.395,24 1.334,-2.415 1.605,-3.055 3.803,-4.833 -0.69,3.136 -1.786,6.389 -2.065,9.405 z"
                       id="path7"
                       inkscape:connector-curvature="0" />
                  </g>
                </g>
              </g>
            </g>
            <g
               transform="matrix(1.7501231,0,0,1.7501231,1277.8954,2004.5087)"
               id="layer1-5"
               inkscape:label="Layer 1">
              <g
                 transform="matrix(-1.479439,0,0,1.479439,-4.7061775,-131.48261)"
                 id="g5273">
                <path
                   style="color:#000000;fill:#000000;fill-opacity:1;fill-rule:nonzero;stroke:none;stroke-width:1;marker:none;visibility:visible;display:inline;overflow:visible;enable-background:accumulate"
                   d="m -88.838095,160.42236 28.026912,-64.775653 24.04163,-9.899495 19.091883,24.041628 14.8492429,50.91169 -27.5771649,15.55635 9.192389,-19.09189 -6.613961,-24.62741 -16.013456,3.41421 -10.263456,-5.03553 -13.363962,23.7561 23.627417,22.29163 z"
                   id="path3173"
                   inkscape:connector-curvature="0"
                   sodipodi:nodetypes="ccccccccccccc" />
                <path
                   style="color:#000000;fill:#000000;fill-opacity:1;fill-rule:nonzero;stroke:none;stroke-width:1;marker:none;visibility:visible;display:inline;overflow:visible;enable-background:accumulate"
                   d="m -41.012193,173.0749 8.838835,-0.35355 0.707106,7.42462 5.303301,-3.18198 -2.12132,11.3137 -7.424621,2.12133 -3.181981,-4.5962 -6.717514,-3.53553 z"
                   id="path3177"
                   inkscape:connector-curvature="0"
                   sodipodi:nodetypes="ccccccccc" />
                <path
                   style="color:#000000;fill:#000000;fill-opacity:1;fill-rule:nonzero;stroke:none;stroke-width:1;marker:none;visibility:visible;display:inline;overflow:visible;enable-background:accumulate"
                   d="m -46.315494,178.3782 -3.181981,5.3033 8.485282,3.18198 4.24264,6.01041 -16.617009,0.35355 -11.667262,-14.49569 -16.617009,-0.35355 -24.395187,-10.96016 7.071071,-4.59619 -2.474871,-7.07107 14.495686,-7.07106 -5.656854,13.43502 z"
                   id="path3179"
                   inkscape:connector-curvature="0" />
                <path
                   style="color:#000000;fill:#000000;fill-opacity:1;fill-rule:nonzero;stroke:none;stroke-width:1;marker:none;visibility:visible;display:inline;overflow:visible;enable-background:accumulate"
                   d="m -3.8890873,164.94317 -20.1525437,22.62742 1.414214,-10.96016 z"
                   id="path3181"
                   inkscape:connector-curvature="0" />
                <path
                   style="color:#000000;fill:#000000;fill-opacity:1;fill-rule:nonzero;stroke:none;stroke-width:1;marker:none;visibility:visible;display:inline;overflow:visible;enable-background:accumulate"
                   d="m -103.88273,171.72135 23.115282,15.21015 13.142135,-3.76777 7.285534,16.07412 20.034693,-2.47487 -20.034693,23.68807 10.90123,32.17336 -5.892556,26.16295 1.178511,-25.45584 -7.954951,-9.8995 -7.954952,29.34494 -30.052043,36.06244 10.606606,-22.27386 -5.008671,-12.37437 -12.963635,9.19239 -28.5789,24.74873 -3.24091,-59.04341 33.88221,-25.10229 -5.9909,-38.63352 z"
                   id="path3183"
                   inkscape:connector-curvature="0"
                   sodipodi:nodetypes="cccccccccccccccccccc" />
                <path
                   style="color:#000000;fill:#000000;fill-opacity:1;fill-rule:nonzero;stroke:none;stroke-width:1;marker:none;visibility:visible;display:inline;overflow:visible;enable-background:accumulate"
                   d="m -3.5355339,170.24647 -19.7989901,23.68808 -13.435029,8.13173 -16.617009,19.79899 7.071068,30.05204 -4.596194,25.45584 30.221126,10.41156 1.598678,-64.85878 29.324629,-14.43408 z"
                   id="path3185"
                   inkscape:connector-curvature="0"
                   sodipodi:nodetypes="cccccccccc" />
                <path
                   inkscape:connector-curvature="0"
                   id="path3191"
                   d="m -28.28427,335.3559 1.41421,-8.83883 12.19759,-6.89429 10.7833799,6.18718 2.12132,10.25305 -9.8994999,3.0052 z"
                   style="color:#000000;fill:#000000;fill-opacity:1;fill-rule:nonzero;stroke:none;stroke-width:1;marker:none;visibility:visible;display:inline;overflow:visible;enable-background:accumulate" />
                <path
                   inkscape:connector-curvature="0"
                   id="path3193"
                   d="m -35.35534,298.40957 4.94975,9.54595 0,26.87005 1.94454,-10.6066 13.43503,-6.01041 9.5459396,-31.64303 -7.8518066,-40.96419 43.294914,-44.79668 3.142236,-6.16223 -4.765317,-18.99024 -29.6463855,-4.85059 16.6390245,37.82553 -32.428164,17.3384 -1.069772,67.56986 -22.846844,-10.32861 z"
                   style="color:#000000;fill:#000000;fill-opacity:1;fill-rule:nonzero;stroke:none;stroke-width:1;marker:none;visibility:visible;display:inline;overflow:visible;enable-background:accumulate"
                   sodipodi:nodetypes="cccccccccccccccc" />
                <path
                   style="color:#000000;fill:#000000;fill-opacity:1;fill-rule:nonzero;stroke:none;stroke-width:1;marker:none;visibility:visible;display:inline;overflow:visible;enable-background:accumulate"
                   d="m -89.449016,340.30565 -1.41421,-8.83883 -12.197584,-6.89429 -10.78338,6.18718 -2.12132,10.25305 9.8995,3.0052 z"
                   id="path3195"
                   inkscape:connector-curvature="0"
                   sodipodi:nodetypes="ccccccc" />
                <path
                   sodipodi:nodetypes="cccccccccccc"
                   style="color:#000000;fill:#000000;fill-opacity:1;fill-rule:nonzero;stroke:none;stroke-width:1;marker:none;visibility:visible;display:inline;overflow:visible;enable-background:accumulate"
                   d="m -83.026126,303.35932 -4.124792,9.54595 0,26.87005 -1.62045,-10.6066 -11.195857,-6.01041 -4.714055,-3.35876 -5.99091,-33.40315 14.838605,-7.65026 2.59966,7.32347 -9.420495,27.61833 32.59192,-37.19867 z"
                   id="path3197"
                   inkscape:connector-curvature="0" />
                <path
                   style="color:#000000;fill:#000000;fill-opacity:1;fill-rule:nonzero;stroke:none;stroke-width:1;marker:none;visibility:visible;display:inline;overflow:visible;enable-background:accumulate"
                   d="M 32.53125,55.34375 4.25,85.03125 l 14.125,35.375 16.96875,16.96875 -5.65625,28.28125 8.9375,29 -6.5,27.0625 L 9.90625,250.5 l 15.5625,16.96875 0,16.96875 -11.3125,21.21875 12.71875,26.875 24.03125,5.65625 -22.625,-25.46875 15.5625,-5.65625 0,-31.09375 L 30.125,250 46.65625,227.875 60.8125,189.6875 47.09375,161.65625 57.96875,135.9375 28.28125,116.15625 18.375,86.46875 33.9375,65.25 50.90625,82.21875 39.59375,87.875 45.25,120.40625 67.875,107.65625 72.125,83.625 60.8125,55.34375 z"
                   id="path3199"
                   inkscape:connector-curvature="0"
                   sodipodi:nodetypes="ccccccccccccccccccccccccccccccc" />
              </g>
            </g>
            <g
               id="g7253"
               transform="matrix(1.1614088,0,0,1.1614088,1541.3232,-263.91476)">
              <path
                 sodipodi:nodetypes="sssssssssssssssssssccccccsscccsscccssccccssss"
                 inkscape:connector-curvature="0"
                 id="path7166"
                 d="m -2957.4062,65.75 c -33.3945,0.308953 -71.6074,6.505137 -107.5626,17.71875 -25.6811,8.009378 -74.773,32.69842 -97.8124,49.1875 -46.8957,33.56259 -86.9478,80.47514 -113.2188,132.59375 -26.7766,53.12164 -42.1946,128.40407 -37.0312,180.90625 11.737,119.34458 65.8118,212.42409 159.9062,275.34375 47.4531,31.73122 96.7627,49.64956 161.1562,58.5 33.6606,4.62642 84.6921,0.46404 126,-10.25 99.6644,-25.84992 182.3653,-92.7513 229,-185.3125 20.2845,-40.2608 29.6538,-72.10079 37.9063,-128.65625 5.9515,-40.78604 -3.742,-110.25001 -22,-157.59375 -20.3938,-52.88218 -46.4961,-91.96931 -88.3437,-132.25 -60.5959,-58.32683 -131.1533,-89.90348 -221.2188,-99.03125 -8.4428,-0.855646 -17.4308,-1.242757 -26.7812,-1.15625 z m 1.75,63.36946 c 19.501,-0.18507 38.4112,0.75344 51.0113,2.94102 56.6173,9.82955 108.6071,35.9912 151.2087,76.09447 46.9361,44.18366 76.4716,96.98852 88.9064,159.0175 5.9731,29.79551 6.105,81.62688 0.2705,111.72467 -7.5241,38.81373 -21.0597,72.73167 -41.4446,103.94958 l -11.6627,17.88271 -11.6626,14.46843 c -12.7515,15.91036 -51.5793,50.30145 -56.792,50.30145 l -12.812,10.78371 -21.0942,10.54708 c -26.9042,13.47168 -48.2519,21.13066 -74.1,26.57053 -27.0735,5.69778 -82.7976,7.29217 -106.823,3.04243 -36.072,-6.38063 -63.3498,-15.54936 -94.9237,-31.91168 l -16.7671,-8.68782 -11.7978,-10.34425 c -8.787,0 -65.3888,-55.7839 -62.9783,-62.0655 0.6782,-1.7675 1.217,-4.00179 1.217,-5.00311 0,-0.69061 1.3333,-2.84096 3.1777,-5.34114 -0.5547,-0.84441 -1.111,-1.68449 -1.6565,-2.53536 -0.5165,0.67771 -1.0387,1.38796 -1.5212,2.09589 -5.8472,8.57936 -35.0948,31.74266 -40.0924,31.74266 -1.6824,0 -7.0956,-1.62068 -12.0007,-3.58331 -12.2043,-4.88322 -21.4661,-17.85859 -21.4661,-30.08622 10e-5,-8.65581 1.0472,-10.21694 17.3758,-26.19867 l 17.3755,-17.00379 -5.7467,-14.02896 c -3.151,-7.7209 -8.5993,-25.2251 -12.1359,-38.90926 -8.6048,-33.29463 -10.736,-82.79694 -5.0369,-117.06582 19.9184,-119.7741 107.1737,-213.337 226.1536,-242.48141 14.71,-3.60324 40.7453,-5.67786 65.8179,-5.91583 z"
                 style="color:#000000;fill:#000000;fill-opacity:1;fill-rule:nonzero;stroke:none;stroke-width:2;marker:none;visibility:visible;display:inline;overflow:visible;enable-background:accumulate" />
              <path
                 id="path7168"
                 d="m -3047.2812,392.75 a 10.001,10.001 0 0 0 -8.3126,15.03125 l 27.5,48.5 c -22.2997,12.49078 -41.201,31.0432 -53.5624,53.78125 -7.2228,13.28589 -10.2813,24.7428 -10.2813,38.59375 l 0,10.71875 12.375,0.46875 c 23.9264,0.91138 243.2783,1.04824 251.8125,0.15625 l 8.6562,-0.90625 0.875,-5.90625 c 1.1128,-7.42078 -3.5936,-27.94338 -8.5312,-37.21875 -1.9556,-3.67358 -3.5727,-7.30974 -3.5938,-8.09375 -0.061,-2.31933 -12.126,-17.62328 -21.9687,-27.875 -9.3455,-9.73394 -18.24,-16.41272 -31.8437,-23.5625 l 27.5937,-48.65625 a 10.001,10.001 0 0 0 -8.625,-15.03125 10.001,10.001 0 0 0 -8.75,5.1875 l -28.3125,49.90625 c -18.2194,-7.70692 -31.297,-9.4316 -61,-9.125 -16.0603,0.16578 -31.8788,3.34826 -46.7188,9.0625 l -28.25,-49.84375 a 10.001,10.001 0 0 0 -9.0624,-5.1875 z m 26,93.1875 c 8.0377,0 12.2588,2.81124 14.0624,9.34375 2.0081,7.27249 -0.7739,14.79448 -6.4374,17.375 -5.1087,2.32764 -10.5309,1.90631 -15.6563,-1.21875 -5.0632,-3.08714 -6.8487,-7.78795 -5.5,-14.53125 1.4643,-7.32151 5.9828,-10.96875 13.5313,-10.96875 z m 129.8124,0 c 7.6574,0 11.0278,1.73783 13.7813,7.0625 3.2228,6.23215 2.6042,10.69007 -2.25,16.21875 -3.529,4.01926 -5.4163,5.0168 -9.5625,5 -10.0347,-0.0406 -15.708,-5.61451 -15.75,-15.46875 -0.032,-7.39204 5.7996,-12.8125 13.7812,-12.8125 z"
                 style="color:#000000;fill:#000000;fill-opacity:1;fill-rule:nonzero;stroke:none;stroke-width:2;marker:none;visibility:visible;display:inline;overflow:visible;enable-background:accumulate"
                 inkscape:connector-curvature="0" />
              <path
                 inkscape:connector-curvature="0"
                 id="path7170"
                 d="m -2968.1924,692.29862 c -7.0004,-0.62623 -16.8645,-1.43866 -21.9203,-1.80539 -11.1478,-0.80862 -34.9232,-5.93289 -44.3828,-9.56575 -3.7983,-1.45872 -7.9349,-2.65517 -9.1924,-2.65877 -3.7169,-0.0106 -17.2784,-5.97277 -35.6349,-15.66639 l -17.1865,-9.0758 0.8054,-36.58468 c 0.4429,-20.12157 1.2065,-36.98607 1.6968,-37.47665 1.4233,-1.42408 274.0673,-1.75707 276.2677,-0.33741 2.4111,1.55554 3.9119,40.41466 2.3603,61.11069 l -1.0079,13.44309 -6.6062,4.09574 c -16.3662,10.14675 -55.062,26.0762 -60.6656,24.97351 -0.9533,-0.18761 -3.6789,0.66499 -6.0568,1.89466 -4.7541,2.45845 -14.2775,4.09811 -41.0001,7.05913 -19.7098,2.18394 -19.7047,2.18386 -37.4767,0.59402 l 0,0 z"
                 style="color:#000000;fill:#000000;fill-opacity:1;fill-rule:nonzero;stroke:none;stroke-width:2;marker:none;visibility:visible;display:inline;overflow:visible;enable-background:accumulate" />
              <path
                 inkscape:connector-curvature="0"
                 id="path7172"
                 d="m -2797.0793,636.20241 c 0.5538,-2.139 0.9316,-14.38962 0.8396,-27.22361 -0.092,-12.83399 0.3194,-23.97978 0.9142,-24.76843 0.5947,-0.78864 4.1939,-4.12972 7.998,-7.42462 6.4438,-5.58117 7.485,-5.99072 15.2309,-5.99072 6.4632,0 9.5788,0.79829 13.9943,3.58563 6.2441,3.94172 11.2208,10.945 11.229,15.80149 0.01,3.92641 -14.471,21.51126 -25.1695,30.57139 -11.5203,9.75608 -23.9452,19.33796 -25.0756,19.33796 -0.5324,0 -0.5148,-1.75009 0.039,-3.88909 z"
                 style="color:#000000;fill:#000000;fill-opacity:1;fill-rule:nonzero;stroke:none;stroke-width:2;marker:none;visibility:visible;display:inline;overflow:visible;enable-background:accumulate" />
              <path
                 inkscape:connector-curvature="0"
                 id="path7174"
                 d="m -3121.1148,635.55865 c -9.2215,-7.00392 -28.3711,-25.04535 -36.0342,-33.949 -7.919,-9.20089 -8.1481,-9.69204 -6.6069,-14.16262 3.9555,-11.47377 11.5149,-16.65906 24.2628,-16.64268 7.8423,0.0101 11.5627,1.86891 19.2562,9.62079 l 4.6451,4.68037 0.7091,25.87483 c 0.4612,16.83036 0.2047,26.18656 -0.7338,26.76662 -0.7937,0.49048 -3.2679,-0.49426 -5.4983,-2.18831 l 0,0 z"
                 style="color:#000000;fill:#000000;fill-opacity:1;fill-rule:nonzero;stroke:none;stroke-width:2;marker:none;visibility:visible;display:inline;overflow:visible;enable-background:accumulate" />
              <path
                 inkscape:connector-curvature="0"
                 id="path7176"
                 d="m -2741.7292,574.46888 c -7.0111,-8.55615 -15.7888,-13.56325 -25.5415,-14.56981 -11.16,-1.15182 -19.5413,1.64393 -29.3169,9.7793 l -8.2631,6.87663 -0.025,-16.66857 c -0.034,-23.43189 -3.7457,-39.25547 -13.9458,-59.46182 -4.9978,-9.90062 -15.4518,-24.01881 -22.1207,-29.87421 -5.5093,-4.83715 -6.2442,-7.2356 -2.2173,-7.2356 5.3834,0 135.3171,43.06753 138.2476,45.82324 2.4461,2.30018 -2.2791,22.06587 -7.9559,33.28026 -4.3563,8.60594 -17.3838,30.27341 -21.6037,35.93173 -1.8192,2.43924 -2.2817,2.19192 -7.2581,-3.88115 l 0,0 z"
                 style="color:#000000;fill:#000000;fill-opacity:1;fill-rule:nonzero;stroke:none;stroke-width:2;marker:none;visibility:visible;display:inline;overflow:visible;enable-background:accumulate" />
              <path
                 inkscape:connector-curvature="0"
                 id="path7178"
                 d="m -2707.9771,496.6246 c -3.1113,-1.02014 -34.5041,-11.30574 -69.7618,-22.8569 l -64.105,-21.00212 0.8431,-4.27133 c 1.3498,-6.83777 10.3761,-18.64165 19.4995,-25.49984 5.8834,-4.42268 12.0501,-7.44269 20.3951,-9.98806 l 11.9617,-3.64855 -0.7454,-10.1446 c -0.74,-10.07092 -0.731,-10.10352 1.2306,-4.48776 1.0868,3.11127 2.0346,6.61145 2.1063,7.77818 0.2881,4.68893 2.9321,6.03639 15.5146,7.90671 15.9547,2.37157 30.4593,7.30613 41.4919,14.1158 9.0989,5.61622 9.3115,5.60652 19.0945,-0.87187 6.1705,-4.08614 5.8848,-1.25601 -0.3535,3.50221 -2.7224,2.07645 -4.9498,4.42443 -4.9498,5.21774 0,0.7933 2.7863,5.37479 6.1917,10.18108 8.8644,12.51076 11.9609,19.30896 13.7714,30.23388 1.2851,7.75466 1.2011,11.12361 -0.4335,17.3932 -2.245,8.61102 -3.3273,9.20435 -11.7514,6.44223 z m -13.9185,-35.57394 c 2.7255,-4.15963 1.571,-7.35458 -3.31,-9.16019 -3.672,-1.35836 -8.9344,2.02644 -8.9344,5.74665 0,3.41932 3.6972,7.09189 7.1394,7.09189 1.4822,0 3.7794,-1.65526 5.105,-3.67835 z m -68.72,-18.99882 c 3.274,-1.7522 3.7033,-8.70017 0.692,-11.19935 -3.4041,-2.82508 -8.3582,-1.19438 -9.9204,3.2654 -1.2161,3.47161 -0.9505,4.41257 1.896,6.71752 3.8656,3.1302 3.7823,3.11638 7.3324,1.21643 z"
                 style="color:#000000;fill:#000000;fill-opacity:1;fill-rule:nonzero;stroke:none;stroke-width:2;marker:none;visibility:visible;display:inline;overflow:visible;enable-background:accumulate" />
              <path
                 inkscape:connector-curvature="0"
                 id="path7180"
                 d="m -3159.5031,500.43791 c -1.6358,-3.66215 -2.3793,-9.24206 -2.4027,-18.03123 -0.038,-14.1246 2.0458,-21.26261 10.1077,-34.63167 2.5852,-4.2871 4.7021,-8.14126 4.7041,-8.56479 0,-0.42354 -3.1997,-3.21295 -7.1149,-6.19869 -8.7235,-6.6526 -8.0408,-8.72457 0.8173,-2.48077 3.5111,2.47487 7.3916,4.49977 8.6233,4.49977 1.2317,0 6.0728,-2.88159 10.758,-6.40353 13.6049,-10.22693 38.3827,-20.46653 49.5251,-20.46653 1.5063,0 2.6093,-1.61272 3.1438,-4.59619 0.4528,-2.52791 1.3665,-7.45998 2.0304,-10.96016 l 1.2072,-6.36396 0.1549,8.56854 c 0.207,11.44834 1.7072,13.13778 12.6723,14.27076 8.8525,0.91468 9.0194,1.01149 11.5821,6.72205 1.4301,3.18669 5.4717,10.97353 8.9813,17.30409 l 6.3811,11.5101 -8.7708,6.13379 c -4.8239,3.37358 -11.3163,8.42216 -14.4276,11.21906 -3.1113,2.7969 -11.2279,7.44802 -18.037,10.33582 -6.809,2.8878 -18.5824,8.15649 -26.1629,11.70819 -20.914,9.79881 -48.3462,21.72865 -49.9642,21.72865 -0.7918,0 -2.5056,-2.38649 -3.8085,-5.3033 z m 32.1569,-35.60645 c 1.9435,-3.63148 0.4431,-7.09588 -3.7662,-8.69626 -6.6807,-2.53999 -12.1277,4.80736 -7.2099,9.72518 2.6845,2.68448 9.3217,2.06229 10.9761,-1.02892 l 0,0 z m 61.5488,-27.85741 c 3.5615,-3.56147 2.1908,-9.40656 -2.5986,-11.08139 -3.4545,-1.20801 -4.4137,-0.94669 -6.6466,1.81085 -5.5714,6.88036 3.0203,15.49552 9.2452,9.27054 z"
                 style="color:#000000;fill:#000000;fill-opacity:1;fill-rule:nonzero;stroke:none;stroke-width:2;marker:none;visibility:visible;display:inline;overflow:visible;enable-background:accumulate" />
              <path
                 inkscape:connector-curvature="0"
                 id="path7182"
                 d="m -3115.7216,569.23475 c -5.1841,-4.77108 -9.1557,-7.18397 -12.7784,-7.76326 -4.6573,-0.74474 -5.4615,-1.49776 -7.0562,-6.6072 -0.9898,-3.17167 -4.9446,-12.43374 -8.7883,-20.5824 -3.8437,-8.14865 -6.9885,-15.35028 -6.9885,-16.00361 0,-0.65334 2.3864,-2.69155 5.3033,-4.52937 6.015,-3.78993 60.5087,-29.22091 62.6148,-29.22091 0.7555,0 -0.7765,3.02289 -3.4045,6.71752 -13.996,19.67678 -22.3488,49.94893 -20.2071,73.23425 0.4317,4.69368 0.3444,9.24131 -0.1941,10.10584 -0.6179,0.99221 -3.7528,-0.98101 -8.501,-5.35086 z"
                 style="color:#000000;fill:#000000;fill-opacity:1;fill-rule:nonzero;stroke:none;stroke-width:2;marker:none;visibility:visible;display:inline;overflow:visible;enable-background:accumulate" />
              <path
                 inkscape:connector-curvature="0"
                 id="path7184"
                 d="m -3217.5326,593.38619 c -4.448,-2.71185 -8.7538,-10.00548 -8.7538,-14.82815 0,-3.2479 10.7154,-14.29354 33.8238,-34.86632 17.7622,-15.81327 21.0173,-18.15152 25.2686,-18.15152 3.7831,0 6.1142,1.23416 10.3705,5.49047 6.6806,6.68065 7.2204,12.03559 1.8558,18.41108 -5.1104,6.07334 -41.2089,38.58448 -47.8341,43.08043 -6.5931,4.47424 -8.6149,4.59282 -14.7308,0.86401 l 0,0 z"
                 style="color:#000000;fill:#000000;fill-opacity:1;fill-rule:nonzero;stroke:none;stroke-width:2;marker:none;visibility:visible;display:inline;overflow:visible;enable-background:accumulate" />
              <path
                 inkscape:connector-curvature="0"
                 id="path7188"
                 d="m -3216,370.86218 0.75,34 44.25,0.25 0,-34.5 c 0,0 -6,-18.5 7,-18.5 13,0 7.75,16.5 7.75,16.5 l 8.75,-0.25 c 0,0 4.0994,-26.32772 -15.2003,-26.32772 -19.2997,0 -19.5497,15.82772 -19.5497,27.32772 -10.75,0 -33.75,1.5 -33.75,1.5 z"
                 style="color:#000000;fill:#000000;fill-opacity:1;fill-rule:nonzero;stroke:none;stroke-width:2;marker:none;visibility:visible;display:inline;overflow:visible;enable-background:accumulate" />
              <path
                 sodipodi:nodetypes="sssssss"
                 inkscape:connector-curvature="0"
                 id="path7190"
                 d="m -3190.25,385.61218 c 0,1.54976 -0.7051,2.93484 -1.812,3.85196 -0.8653,0.71705 -1.9763,7.52304 -3.188,7.52304 -1.0785,0 -2.0773,-6.7165 -2.8941,-7.29727 -1.2745,-0.90618 -2.1059,-2.39486 -2.1059,-4.07773 0,-2.76142 2.2386,-5 5,-5 2.7614,0 5,2.23858 5,5 z"
                 style="color:#000000;fill:#ffffff;fill-opacity:1;fill-rule:nonzero;stroke:none;stroke-width:2;marker:none;visibility:visible;display:inline;overflow:visible;enable-background:accumulate"
                 transform="translate(1.75,-0.5)" />
              <path
                 id="path7193"
                 d="m -3130.75,262.875 -2.75,12.09375 -18.5,0.15625 1.5,50.25 64.25,-1 -0.75,-49.75 -17.7812,0.125 -2.4688,-11.625 -23.5,-0.25 z m 4,5.25 16.25,0.75 1.0312,5.9375 -17.5937,0.125 0.3125,-6.8125 z"
                 style="color:#000000;fill:#000000;fill-opacity:1;fill-rule:nonzero;stroke:none;stroke-width:2;marker:none;visibility:visible;display:inline;overflow:visible;enable-background:accumulate"
                 inkscape:connector-curvature="0" />
              <path
                 inkscape:connector-curvature="0"
                 id="path7198"
                 d="m -3067.75,193.86218 23,20 3.5,-0.5 13,12.75 2,-2.75 4,2 0,-5.75 3.75,2.25 0.75,-7.75 7.75,3.75 -2.5,-8.75 -9.5,-11.25 -9,9.5 -7.75,-5.25 12.5,-23.25 21,6 5.25,-3.75 17,15.75 -3.75,5 -4.5,-2.5 3,7 -11.25,16.25 -7,6.25 -4.5,-3 3.25,4.75 -2.5,3.5 -5.75,-4.25 4.25,5.75 -17.25,9.5 -20.5,-19 -0.75,-9 z"
                 style="color:#000000;fill:#000000;fill-opacity:1;fill-rule:nonzero;stroke:none;stroke-width:2;marker:none;visibility:visible;display:inline;overflow:visible;enable-background:accumulate" />
              <path
                 sodipodi:nodetypes="ssssssssscssssc"
                 inkscape:connector-curvature="0"
                 id="path7200"
                 d="m -2866.25,175.125 c -16.1543,0 -29.25,13.09567 -29.25,29.25 0,3.72261 0.6954,7.28281 1.9634,10.55775 0.8453,2.18314 -19.6807,10.92144 -22.6881,18.68924 -0.7685,1.98494 9.8887,11.15046 10.2533,11.61233 1.4357,1.81872 19.8329,-19.28714 21.6543,-17.85467 4.9741,3.91192 11.2481,6.24535 18.0671,6.24535 16.1543,0 29.25,-13.09567 29.25,-29.25 0,-16.15433 -13.0957,-29.25 -29.25,-29.25 z m -1.0938,8.25 c 0.358,-0.0181 0.7314,0 1.0938,0 11.598,0 21,9.40202 21,21 0,11.59798 -9.402,21 -21,21 -11.598,0 -21,-9.40202 -21,-21 0,-11.23554 8.8105,-20.43755 19.9062,-21 z"
                 style="color:#000000;fill:#000000;fill-opacity:1;fill-rule:nonzero;stroke:none;stroke-width:2;marker:none;visibility:visible;display:inline;overflow:visible;enable-background:accumulate" />
              <path
                 inkscape:connector-curvature="0"
                 id="path7205"
                 d="m -2879.75,210.86218 c 2.75,7.5 20.75,16.75 25,-0.75"
                 style="color:#000000;fill:none;stroke:#000000;stroke-width:2;marker:none;visibility:visible;display:inline;overflow:visible;enable-background:accumulate" />
              <path
                 sodipodi:nodetypes="scccccssss"
                 inkscape:connector-curvature="0"
                 id="path7209"
                 d="m -2798,259.1875 c -12.8046,0.13465 -23.1344,1.08985 -24.0625,3.34375 l -11.6128,14.83472 13.0815,4.66528 33.875,6.3125 L -2768.75,317 c 5.7871,0.15277 7.014,13.68157 12.0476,13.08448 2.4388,-0.28929 10.3627,-14.22551 11.3586,-14.86573 4.9498,-3.18203 4.9498,-48.46447 0,-52 -3.0936,-2.20971 -31.3153,-4.25567 -52.6562,-4.03125 z"
                 style="color:#000000;fill:#999999;stroke:#999999;stroke-width:2;stroke-linecap:round;stroke-linejoin:round;stroke-miterlimit:4;stroke-opacity:1;stroke-dasharray:none;marker:none;visibility:visible;display:inline;overflow:visible;enable-background:accumulate" />
              <path
                 inkscape:connector-curvature="0"
                 id="path7207"
                 d="m -2833.7304,277.37315 3.182,42.42641 c 0,0 3.889,-12.72793 9.1923,-8.83884 5.3033,3.88909 -11.3137,18.38478 8.4853,18.38478 19.799,0 -4.2426,-16.61701 7.0711,-15.2028 11.3137,1.41422 15.9099,17.32412 15.9099,17.32412 0,0 27.9307,1.76777 32.8805,-1.41421 4.9497,-3.18199 4.9497,-48.43682 0,-51.97235 -4.9498,-3.53554 -74.2463,-6.71752 -76.7211,-0.70711 z"
                 style="color:#000000;fill:#000000;fill-opacity:1;stroke:#000000;stroke-width:2;stroke-linecap:round;stroke-linejoin:round;stroke-miterlimit:4;stroke-opacity:1;stroke-dasharray:none;marker:none;visibility:visible;display:inline;overflow:visible;enable-background:accumulate" />
              <path
                 d="m -2767.6158,293.99017 c 0,4.49103 -3.6407,8.13173 -8.1318,8.13173 -4.491,0 -8.1317,-3.6407 -8.1317,-8.13173 0,-4.49103 3.6407,-8.13172 8.1317,-8.13172 4.4911,0 8.1318,3.64069 8.1318,8.13172 z"
                 sodipodi:ry="8.1317282"
                 sodipodi:rx="8.1317282"
                 sodipodi:cy="293.99017"
                 sodipodi:cx="-2775.7476"
                 id="path7214"
                 style="color:#000000;fill:#ffffff;fill-opacity:1;fill-rule:nonzero;stroke:#000000;stroke-width:2;stroke-linecap:round;stroke-linejoin:round;stroke-miterlimit:4;stroke-opacity:1;stroke-dasharray:none;marker:none;visibility:visible;display:inline;overflow:visible;enable-background:accumulate"
                 sodipodi:type="arc" />
              <path
                 sodipodi:nodetypes="sscsssss"
                 inkscape:connector-curvature="0"
                 id="path7227"
                 d="m -2750.5,398.61218 c 14.2296,6.37133 21.7232,-7.10173 30.5,-4.75 13.5337,3.62635 10.25,5.5 10.75,-24.75 -15,-1.25 -11.75,-4.5 -17,-10.25 -5.25,-5.75 -14.25,-26.75 -21,-24.25 -6.75,2.5 1,16 -0.75,21.25 -1.75,5.25 -11.25,2 -13.25,6.5 -2,4.5 -5.4132,29.0129 10.75,36.25 z"
                 style="color:#000000;fill:#000000;fill-opacity:1;fill-rule:nonzero;stroke:none;stroke-width:20;marker:none;visibility:visible;display:inline;overflow:visible;enable-background:accumulate" />
              <path
                 sodipodi:nodetypes="cccccccccccccccccccccccacssccaaaaccssccccccccccccccccc"
                 inkscape:connector-curvature="0"
                 id="path7160"
                 d="m -2948.4231,421.57394 c -4.5777,-7.69099 -7.8241,-15.371 -14.2128,-22.23671 -8.0678,-10.49784 -23.9073,-15.92849 -25.468,-30.6599 -3.1963,-13.72313 5.5899,-30.40429 20.5169,-31.61127 10.7924,-1.85886 20.9763,4.57471 26.4622,13.56314 8.5078,12.64066 1.2733,28.76435 6.7917,42.34926 -0.4049,8.63578 9.7362,17.67009 3.5701,25.23926 -4.0508,4.51619 -12.4903,8.0276 -17.6601,3.35622 z m 10.9082,-2.19222 c 4.2028,-1.06121 8.1655,-6.50629 0.7654,-3.78256 -8.702,-1.86799 9.401,-10.37576 -0.4569,-7.90625 -8.3935,2.48028 -14.901,7.01462 -6.536,12.603 2.0424,1.27739 4.2676,-0.34874 6.2275,-0.91419 z m -12.7893,-16.16477 c 2.2584,-3.23897 -3.9988,-13.15886 4.7771,-10.24879 -0.2621,7.24723 9.0348,6.75818 4.9807,-0.52667 -3.9516,-11.87954 -0.1409,-24.83132 -4.167,-36.61026 -5.1394,-9.60494 -18.0585,-17.92241 -28.4529,-10.92517 -10.4801,5.33298 -11.6559,19.45249 -7.1558,29.11102 5.7487,8.65611 15.944,13.12295 21.8635,21.75426 2.6965,1.79995 4.317,9.34521 8.1544,7.44561 z m -55.4182,-43.39301 c -7.3221,-2.61444 -12.1558,-7.06627 -18.2258,-11.39454 -6.8447,-2.0277 -12.9678,-4.05438 -13.5792,-9.55522 -0.4,-3.59904 7.5647,-6.18697 7.295,-8.04989 7.8189,2.96073 16.71,8.68319 24.2521,1.20089 10.2291,-10.1479 7.4872,-35.11932 27.7327,-33.11755 8.3865,0.82922 13.5567,10.60784 22.861,10.34418 4.2735,3.74197 8.7276,2.24353 7.6324,-3.42787 7.2127,-4.52592 4.8977,-16.99679 10.5889,-23.3878 7.1735,-8.05553 21.5429,-25.48883 27.7411,-16.66089 1.959,2.7902 -5.8743,3.73921 -7.9307,6.45846 -5.7225,7.56707 -7.0837,17.62239 -11.2823,26.12995 -4.4652,9.04766 -10.5011,16.71905 -14.758,26.42697 -3.0575,7.42844 -13.7356,13.71739 -16.4861,3.11159 -7.3933,-6.75171 -9.9305,4.81145 -15.6428,4.98232 -13.4234,0.40153 -9.1638,11.31633 -15.1536,10.52545 -9.1514,-1.20833 -2.479,9.07537 -7.444,16.64171 -2.1856,2.28825 -5.4376,1.86536 -7.6009,-0.22776 z m -17.9485,-42.1752 c -6.4977,-9.81238 -1.9879,-24.09281 7.1581,-30.75802 7.0423,-7.20263 16.9581,-9.30947 26.6888,-8.95149 8.7569,-0.64428 19.1214,1.02832 25.5995,-6.34739 6.8333,-7.35602 12.6313,-16.98029 23.2657,-19.2048 21.3008,-5.36004 43.5457,-4.09433 65.3204,-4.12707 11.1529,0.56133 22.5947,0.16957 33.4161,3.3045 -14.742,2.15276 -29.8071,1.22206 -44.6759,2.10753 -12.2269,0.94268 -25.0671,-0.0426 -36.6499,4.51702 -14.435,7.53116 -19.0948,24.18907 -28.1608,36.47005 -7.3512,7.68166 -17.0006,-2.43586 -24.8932,-4.51802 -9.7155,-4.33111 -21.5577,0.17416 -26.4446,9.51574 -4.8909,6.66981 -6.7111,16.69923 -14.9907,20.15699 -2.1409,0.57145 -4.2528,-0.62559 -5.6335,-2.16504 z"
                 style="fill:#000000" />
            </g>
            <path
               style="color:#000000;fill:#000000;fill-opacity:1;fill-rule:nonzero;stroke:none;stroke-width:20;marker:none;visibility:visible;display:inline;overflow:visible;enable-background:accumulate"
               d="M -1503.107,201.2989 -307.08637,290.19232 -1543.5131,403.32941 z"
               id="path8122"
               inkscape:connector-curvature="0" />
            <path
               style="color:#000000;fill:#000000;fill-opacity:1;fill-rule:nonzero;stroke:none;stroke-width:20;marker:none;visibility:visible;display:inline;overflow:visible;enable-background:accumulate"
               d="m -1340.9924,1073.4963 1324.829959,24.818 -1399.353459,68.7252 z"
               id="path8124"
               inkscape:connector-curvature="0"
               sodipodi:nodetypes="cccc" />
            <path
               style="color:#000000;fill:#000000;fill-opacity:1;fill-rule:nonzero;stroke:none;stroke-width:20;marker:none;visibility:visible;display:inline;overflow:visible;enable-background:accumulate"
               d="M -1640.4877,2003.411 -8.0812204,2059.9796 -1381.8887,2116.5481 z"
               id="path8126"
               inkscape:connector-curvature="0" />
            <path
               style="color:#000000;fill:#000000;fill-opacity:1;fill-rule:nonzero;stroke:none;stroke-width:20;marker:none;visibility:visible;display:inline;overflow:visible;enable-background:accumulate"
               d="M 1111.1678,665.96907 64.649763,722.53761 1212.1831,783.14676 z"
               id="path8128"
               inkscape:connector-curvature="0" />
            <path
               style="color:#000000;fill:#000000;fill-opacity:1;fill-rule:nonzero;stroke:none;stroke-width:20;marker:none;visibility:visible;display:inline;overflow:visible;enable-background:accumulate"
               d="m 1119.249,1571.0657 -1301.07646,24.2437 1406.13226,68.6903 z"
               id="path8130"
               inkscape:connector-curvature="0"
               sodipodi:nodetypes="cccc" />
            <path
               sodipodi:nodetypes="ccscccc"
               style="color:#000000;fill:#000000;fill-opacity:1;fill-rule:nonzero;stroke:none;stroke-width:20;marker:none;visibility:visible;display:inline;overflow:visible;enable-background:accumulate"
               d="m 1167.7363,2528.6903 -483.41267,14.942 c 0,0 -22.39229,50.6617 -84.30861,50.6617 -73.79893,0 -88.50783,-46.4412 -88.50783,-46.4412 l -968.09614,29.3249 1663.05775,50.9383 z"
               id="path8132"
               inkscape:connector-curvature="0" />
            <path
               inkscape:connector-curvature="0"
               id="path4725"
               d="m -2725.5346,1442.7001 c -13.9194,-3.4396 -16.7868,-22.9922 -4.3177,-29.4402 5.0253,-2.5985 17.8193,-2.6885 23.8525,-0.1642 6.0668,2.5348 9.0281,7.0699 9.0281,13.826 0,6.3315 -2.6218,10.7925 -7.968,13.5571 -4.9435,2.5564 -14.9008,3.6321 -20.5949,2.2249 z m 14.9712,-12.4094 c 5.9068,-3.1613 1.3566,-8.1609 -7.4271,-8.1609 -4.3334,0 -9.0807,2.769 -9.0807,5.2967 0,3.9619 10.9172,5.856 16.5078,2.8642 z m 43.0068,1.5945 c -6.6122,-1.7238 -10.2301,-4.1658 -13.0653,-8.8159 -5.2898,-8.6751 -1.5803,-19.75 7.9649,-23.7785 6.599,-2.785 21.3881,-2.785 27.9873,0 13.5205,5.7065 13.9631,23.69 0.7506,30.5222 -4.5496,2.3524 -18.0319,3.5345 -23.6383,2.0722 z m 19.8074,-13.8281 c 5.2468,-5.2467 0.2932,-9.6082 -10.9143,-9.6082 -11.2068,0 -16.1609,4.3615 -10.9141,9.6082 2.0937,2.0939 4.5608,2.7054 10.9141,2.7054 6.3532,0 8.8205,-0.6111 10.9143,-2.7054 z m 40.1299,3.1941 c -7.1167,-2.521 -15.0185,-11.045 -16.2313,-17.5091 -2.0946,-11.1662 4.1464,-22.8141 15.0533,-28.0942 5.2378,-2.5356 8.079,-2.9763 16.4544,-2.5534 8.5482,0.4304 11.042,1.1495 16.0245,4.6116 10.2677,7.1352 14.9141,21.2505 10.0751,30.6079 -2.8813,5.5719 -10.8402,12.0815 -16.7922,13.7343 -7.116,1.9765 -17.727,1.6316 -24.5838,-0.7964 z m 25.6274,-12.368 c 5.9,-3.4853 7.7509,-9.0503 4.9578,-14.9073 -7.5492,-15.8311 -35.5681,-11.8806 -35.5681,5.0152 0,4.8464 4.8469,10.3896 10.6416,12.1708 5.5309,1.6992 15.0772,0.6099 19.9687,-2.2787 z m 44.8302,-10.6248 c -7.5748,-2.8865 -13.2882,-7.6041 -17.1323,-14.1463 -2.9133,-4.9581 -3.3561,-7.1274 -2.8588,-14.0026 0.753,-10.4057 5.5638,-16.8385 16.8354,-22.5096 6.8012,-3.422 9.6264,-4.0526 17.7265,-3.9572 11.2643,0.1232 17.4852,2.4357 25.0587,9.2779 7.1467,6.4569 8.987,11.204 8.2567,21.3003 -0.7225,9.9999 -5.5043,16.7232 -15.5791,21.9087 -8.0583,4.1474 -24.2158,5.2119 -32.3071,2.1288 z m 22.7743,-10.4803 c 12.9718,-3.6014 18.2337,-15.6432 10.7314,-24.5592 -14.66,-17.4224 -50.7805,-4.2339 -40.8736,14.924 4.5514,8.8011 17.8427,13.05 30.1422,9.6352 z m 74.6286,-39.1044 c -15.0749,-2.668 -39.0104,-10.5802 -58.9657,-19.4915 l -15.8689,-7.0867 -11.2015,7.4977 c -21.6072,14.4624 -46.5046,21.8182 -64.0236,18.9152 -13.1959,-2.1866 -24.7457,-8.3318 -33.5667,-17.8597 -7.2784,-7.8614 -7.5118,-7.9864 -16.2409,-8.687 -14.0503,-1.1284 -27.051,-9.3705 -33.8445,-21.4578 l -3.1539,-5.6114 7.3439,0 c 6.598,0 7.8158,0.4867 11.9885,4.7916 5.6678,5.8477 16.8115,10.2229 26.3851,10.3595 6.8866,0.1057 7.3195,0.3391 12.604,6.9987 6.6426,8.3709 18.1326,15.6809 27.3388,17.3927 16.8934,3.1409 41.2908,-5.1643 63.2966,-21.5474 l 11.2823,-8.3996 18.563,8.9889 c 20.5734,9.9624 48.1301,19.4916 66.9562,23.1536 51.8759,10.0909 102.099,-25.5985 106.8678,-75.9421 0.9806,-10.3626 -0.8926,-18.8763 -5.8191,-26.4482 l -3.4118,-5.2419 6.795,-7.1847 c 19.2699,-20.375 19.7174,-42.1461 1.297,-63.0739 -5.9373,-6.7447 -18.2021,-17.0807 -20.2683,-17.0807 -0.6451,0 -1.3606,24.4729 -1.5884,54.3842 -0.4047,52.9745 -0.4949,54.556 -3.4755,61.0186 -7.6421,16.5608 -21.1047,28.836 -37.0162,33.7502 -8.4977,2.6249 -13.0414,2.7122 -141.2989,2.7122 -124.8255,0 -132.5906,-0.1431 -133.755,-2.3943 -5.8841,-11.3964 -0.047,-34.7079 13.7671,-54.8222 2.2299,-3.2511 3.8068,-6.1583 3.5043,-6.461 -0.3014,-0.3015 -5.8756,-2.6971 -12.3848,-5.3212 -19.5606,-7.8859 -32.3401,-17.3799 -35.246,-26.1843 -3.4794,-10.5429 10.1851,-26.2369 33.323,-38.2724 l 12.9259,-6.7238 -3.7567,-5.5008 c -8.3261,-12.1926 -9.196,-27.4128 -2.1483,-37.5829 10.6964,-15.4348 41.2649,-26.907 58.9601,-22.1274 12.5979,3.4029 26.3038,17.3436 30.7598,31.2867 0.9031,2.8252 2.145,5.6837 2.7606,6.3526 0.6275,0.6814 3.7971,-1.1412 7.2171,-4.1516 13.8984,-12.2337 28.9872,-16.8928 37.4535,-11.5644 5.8543,3.6844 10.9692,11.6827 13.0367,20.3859 0.93,3.9112 2.005,7.0968 2.3915,7.0791 0.3859,-0.023 2.5494,-2.5309 4.8068,-5.5844 8.0714,-10.9181 22.1566,-20.5984 36.6688,-25.2015 28.0043,-8.8824 59.5922,-1.5289 94.9961,22.1136 9.4225,6.2925 17.4175,11.4408 17.7666,11.4408 0.3483,0 0.421,-3.3868 0.1642,-7.5265 -0.299,-4.8199 0.059,-7.5261 1.0263,-7.5248 2.59,0 20.0738,12.9718 27.9465,20.7289 25.0871,24.7201 27.2598,52.6212 5.9445,76.3295 l -6.2185,6.9163 3.2013,6.5021 c 4.2986,8.7313 5.1569,27.9889 1.8675,41.9232 -7.3549,31.161 -30.9568,57.1235 -60.9363,67.0319 -18.2973,6.0472 -46.0872,7.707 -67.0192,4.0024 z m -289.257,-58.0281 c -20.0985,-6.9119 -35.1601,-24.2325 -39.0896,-44.9526 -2.0071,-10.5798 -1.8593,-232.9812 0.1642,-242.493 3.7058,-17.45205 15.8952,-32.95183 32.2486,-41.00627 l 9.2426,-4.55208 88.9632,-0.85155 c 146.1234,-1.39752 231.8116,-1.31142 241.3942,0.24398 19.1083,3.10029 34.8148,14.81224 43.5443,32.469 l 5.1428,10.40333 0.3941,61.33849 0.3941,61.3387 -11.3406,-7.674 c -32.8111,-22.203 -68.8536,-32.8291 -93.4295,-27.5458 -12.986,2.7917 -20.2818,6.1514 -31.0396,14.294 -8.9379,6.7651 -9.1093,6.828 -9.9119,3.6293 -1.1738,-4.6741 -8.8808,-12.9777 -14.0518,-15.1382 -9.1045,-3.8043 -23.1461,-1.2067 -38.0314,7.0379 l -8.2089,4.5462 -4.1045,-6.1033 c -6.1267,-9.1104 -17.6853,-17.996 -28.4855,-21.8979 -24.6963,-8.9223 -57.0883,-1.3873 -76.3401,17.7569 -12.2515,12.1831 -16.0205,29.6774 -9.8138,45.5513 l 2.7412,7.011 -10.2125,6.6705 c -11.9616,7.8133 -26.0098,22.1492 -30.2134,30.8324 -1.7936,3.7046 -2.9613,8.7449 -2.9613,12.7784 0,14.0559 9.1385,24.4601 31.0235,35.3193 l 11.1853,5.5499 -2.475,4.8764 c -8.4051,16.5586 -11.0783,38.635 -6.1815,51.0513 0.8761,2.2204 -0.6322,2.391 -20.7505,2.3485 -18.1786,-0.035 -23.008,-0.4962 -29.7961,-2.8317 z m 522.186,0.7635 c -10.7654,-2.8987 -17.8259,-6.9803 -26.6729,-15.4188 -9.6105,-9.167 -15.4765,-20.6022 -17.4021,-33.9233 -1.878,-12.9913 -1.8534,-224.1466 0.035,-235.7381 3.5033,-21.59119 18.7011,-39.76528 39.6448,-47.40939 8.0714,-2.94587 43.7168,-4.86086 42.7301,-2.29569 -1.2846,3.34188 4.0862,29.91455 8.6013,42.5471 2.5167,7.04198 7.2244,17.45608 10.4621,23.14218 10.9793,19.2865 32.0575,38.4803 51.8596,47.224 7.0657,3.12 7.7265,3.7994 8.4461,8.6797 0.4304,2.9122 2.4529,17.7621 4.4973,33 l 3.7173,27.7051 44.6657,0 44.6658,0 4.5743,-32.6384 4.575,-32.6383 7.6882,-3.7575 c 18.2424,-8.9161 38.8398,-27.9274 49.2597,-45.4666 10.171,-17.1205 17.9432,-43.74097 17.9432,-61.45806 l 0,-7.37375 12.7097,0 c 20.7606,0 34.118,4.65429 46.5008,16.20263 8.0569,7.51426 12.5142,14.19315 16.4812,24.6967 2.8519,7.55048 2.904,9.45048 3.3514,121.78058 0.312,78.0673 0,117.1606 -1.0451,123.767 -3.8973,25.1205 -23.3147,45.4565 -47.8447,50.1083 -4.6374,0.8785 -64.3017,1.3463 -164.7627,1.2888 -131.2022,-0.082 -158.6917,-0.4128 -164.6751,-2.0236 z m 185.7263,-64.2413 0,-6.1567 -15.0497,0 -15.0497,0 0,6.1567 0,6.1567 15.0497,0 15.0497,0 0,-6.1567 z m -8.551,-17.0869 38.6503,-0.012 0,-6.1568 0,-6.1567 -43.781,0 -43.7809,0 0,7.0197 0,7.0199 5.1306,-0.8479 c 2.8215,-0.4657 22.5231,-0.8562 43.781,-0.8645 z m 38.6503,-28.0622 0,-6.1568 -43.781,0 -43.7809,0 0,6.1568 0,6.1567 43.7809,0 43.781,0 0,-6.1567 z m 0,-23.9428 0,-6.8407 -44.465,0 -44.4649,0 0,6.8407 0,6.8408 44.4649,0 44.465,0 0,-6.8408 z m 303.2072,131.1893 c -13.8109,-3.2424 -28.7609,-14.906 -36.8938,-28.7844 -7.57,-12.9173 -7.6829,-14.9473 -7.7088,-138.9356 0,-79.2132 0.4457,-116.0362 1.5166,-121.0815 5.0064,-23.57719 24.5182,-42.38316 47.9121,-46.17911 5.275,-0.85621 40.9998,-1.41397 90.8307,-1.42216 l 82.1356,-0.009 -9.718,-9.91902 c -11.1968,-11.42854 -17.5333,-23.01011 -21.8267,-39.89356 l -2.8151,-11.06976 -16.7283,-0.38356 c -9.201,-0.21108 -16.7286,-0.70372 -16.7286,-1.09546 0,-0.39175 2.5503,-6.68316 5.6669,-13.98154 3.1166,-7.29817 6.4955,-15.23315 7.5082,-17.63305 l 1.8409,-4.36316 -7.1665,3.27908 c -12.2808,5.61978 -23.8333,7.95083 -40.0021,8.07142 -18.4855,0.14304 -26.5118,-1.95781 -33.7029,-8.79791 -4.5,-4.28086 -5.2897,-5.88814 -5.2897,-10.77071 0,-6.42132 3.5745,-14.40797 8.4182,-18.80922 10.4603,-9.50563 27.9062,-11.63944 53.0694,-6.49118 4.4257,0.90549 4.0364,0.37184 -6.4793,-8.8952 -42.2052,-37.19108 -65.9271,-87.68294 -68.2619,-145.29632 -2.407,-59.38646 21.513,-103.44181 68.664,-126.46418 53.6279,-26.18504 121.0206,-18.64634 167.032,18.68451 17.0179,13.80773 31.1549,35.67036 38.3552,59.3166 3.4627,11.37248 3.7534,14.14348 3.7991,36.25603 0.035,19.81806 -0.4785,26.35858 -3.0086,37.96512 -9.3551,42.89589 -27.9576,78.54089 -55.638,106.61103 l -13.7242,13.917 13.6818,-0.1431 c 15.9158,-0.16421 22.935,2.07301 29.305,9.32817 6.8351,7.78462 7.318,21.52975 1.086,30.88902 -8.8183,13.24098 -33.2194,13.22846 -67.3761,-0.0473 -5.9147,-2.29702 -10.9779,-3.95277 -11.2507,-3.67969 -0.2733,0.27329 4.1618,9.79683 9.8555,21.16464 l 10.3516,20.66835 -28.74,0 -28.7398,0 0,3.35813 c 0,4.61394 5.5518,19.51314 10.273,27.56905 4.6262,7.89448 13.8775,18.09771 22.9506,25.31338 l 6.5445,5.20473 -9.7159,0.40227 -9.7164,0.40233 11.3806,8.18349 c 14.8551,10.68207 48.0279,43.89484 56.1597,56.22754 9.3664,14.2054 17.2641,30.7933 20.2854,42.6078 3.6015,14.0827 3.5798,34.6504 -0.035,48.8502 -16.5333,64.6454 -103.4497,131.5436 -229.3967,176.5631 -14.2282,5.0858 -25.9723,6.1061 -37.942,3.2962 z m 194.8006,-410.99488 c 0,-0.38589 -4.2543,-9.19499 -9.4544,-19.57501 -8.832,-17.63026 -9.8313,-19.04303 -15.1852,-21.45744 l -5.7313,-2.58408 6.6347,-3.10269 c 3.6488,-1.7055 7.1462,-3.12459 7.7714,-3.15143 2.6604,-0.12319 21.3329,-10.33287 30.8582,-16.88784 13.7793,-9.48199 34.4067,-30.25435 45.0954,-45.41199 22.7071,-32.20064 36.2889,-74.00253 36.2292,-111.50452 -0.047,-21.0015 -2.6538,-33.42489 -10.5329,-49.9375 -21.0348,-44.08479 -73.7393,-70.7062 -130.9342,-66.13641 -17.158,1.37089 -32.5034,5.62405 -48.4691,13.43377 -33.4595,16.36671 -52.7626,42.1048 -61.0741,81.43375 -2.7902,13.20103 -2.1562,42.66369 1.2971,60.23115 8.0729,41.08326 24.1204,71.2039 53.5593,100.52699 14.7569,14.6989 29.8849,26.5395 46.3228,36.25602 l 6.9434,4.10453 -8.5438,19.83824 c -4.6985,10.91094 -8.9542,20.91553 -9.4571,22.23254 -0.8538,2.23895 1.2108,2.39411 31.8792,2.39411 18.0356,0 32.7925,-0.31551 32.7925,-0.70139 z m -96.7842,-27.94455 c 5.7029,-1.45919 13.0357,-4.02176 16.2947,-5.6955 l 5.9254,-3.04342 -4.7886,-1.98451 c -9.3563,-3.87739 -30.5752,-8.51464 -38.8258,-8.48507 -12.0328,0.0466 -21.8689,5.06176 -24.4931,12.49684 -0.9665,2.73638 2.7022,6.33829 8.1034,7.95689 7.2839,2.18274 26.9095,1.53509 37.784,-1.2457 z m 164.3235,-2.92003 c 2.9249,-2.30042 3.6048,-3.97861 3.6048,-8.89294 0,-10.76864 -6.5115,-13.91987 -25.8215,-12.49704 -10.5636,0.77763 -36.6519,6.79915 -38.8092,8.95646 -0.6534,0.65211 4.1662,3.19085 10.864,5.72006 26.0159,9.82453 43.271,12.134 50.1619,6.71346 z m -163.3343,434.45796 c 61.4258,-27.6324 117.5701,-65.533 148.7619,-100.4231 28.715,-32.1199 41.849,-61.8297 41.78,-94.5086 -0.059,-24.8625 -7.4874,-46.9258 -23.8417,-70.752 -9.3929,-13.6842 -34.2473,-39.28837 -50.8481,-52.38186 l -13.0098,-10.26115 60.3927,-0.35659 c 36.4462,-0.21582 63.3941,0.18419 67.9621,1.02628 16.0688,2.93541 32.0877,13.99125 40.1123,27.68339 8.1275,13.86926 7.9104,9.71438 7.5051,143.48663 l -0.3719,122.3728 -4.4256,8.9889 c -5.5917,11.3571 -13.0677,19.8315 -22.4418,25.4394 -14.7764,8.8393 -10.8344,8.6093 -147.5177,8.6039 l -123.8725,-0.01 19.8141,-8.9133 z m -477.5614,-157.6495 c -0.059,-0.5642 -2.0611,-14.5036 -4.458,-30.9762 l -4.3576,-29.9498 -10.0461,-5.2586 c -33.3759,-17.4703 -53.2515,-42.6226 -61.7748,-78.17405 -1.4858,-6.19792 -2.7057,-14.19329 -2.7113,-17.76756 l 0,-6.4987 49.5957,0.0586 49.5957,0.0586 -15.7338,14.91499 c -10.255,9.72091 -15.2574,15.36926 -14.3658,16.21948 0.753,0.71784 11.7134,4.65097 24.3576,8.74158 l 22.9896,7.43746 -21.9631,10.0697 c -12.0799,5.5384 -21.9637,10.4469 -21.9637,10.9078 0,0.4622 10.6202,3.8158 23.6006,7.4556 12.9804,3.6397 24.0882,7.0447 24.6848,7.5672 0.5947,0.5208 -2.3281,3.865 -6.4987,7.4279 l -7.583,6.4782 0,36.1503 0,36.1502 -11.6289,0 c -6.3963,0 -11.6748,-0.4622 -11.7296,-1.0263 z m 38.4083,-32.4711 0,-33.4974 12.9268,-11.2128 c 7.1098,-6.167 12.6788,-11.6141 12.3755,-12.1044 -0.3038,-0.4903 -7.8129,-3.549 -16.6889,-6.7967 -8.8759,-3.2478 -16.6218,-6.3291 -17.2129,-6.8473 -0.5911,-0.5196 3.4107,-3.0034 8.8927,-5.523 5.4825,-2.5196 15.8167,-7.2987 22.9655,-10.6201 l 12.9976,-6.0392 -28.4416,-8.63277 c -15.6427,-4.74785 -29.4574,-9.02259 -30.6991,-9.4989 -1.7691,-0.67915 0.3858,-3.52354 9.9425,-13.12392 l 12.2006,-12.25732 52.2749,0 52.2743,0 -0.6897,5.13061 c -2.9647,22.07572 -7.9553,38.36952 -16.2284,52.9826 -10.827,19.1251 -23.9882,31.7384 -43.7935,41.9707 -6.0197,3.11 -11.1193,5.7926 -11.333,5.9609 -0.3566,0.285 -8.5051,60.1691 -8.5051,62.5347 0,0.5888 -5.2331,1.0708 -11.6293,1.0708 l -11.6295,0 0,-33.4971 z m -184.0169,-202.80716 c -24.8319,-12.419 -45.3481,-22.7624 -45.5918,-22.98521 -0.3718,-0.339 3.4395,-8.65261 4.572,-9.97329 0.6462,-0.75532 90.9594,44.86416 90.9001,45.91568 -0.035,0.56302 -1.1084,2.95732 -2.394,5.32239 l -2.3369,4.30037 -45.1494,-22.57994 z m 301.2595,15.32658 c -1.2744,-2.67331 -2.3178,-5.14566 -2.3178,-5.49413 0,-0.34953 21.4561,-11.36535 47.6796,-24.48121 l 47.6794,-23.84721 2.258,4.73573 c 1.2416,2.60453 2.2582,4.99863 2.2582,5.32 0,0.41405 -86.2512,44.48999 -94.4412,48.2599 -0.4387,0.2053 -1.8408,-1.82043 -3.1162,-4.49308 z m -266.5186,-76.41082 -40.508,-35.99346 3.7159,-4.55268 3.7154,-4.55274 37.4765,33.26281 c 20.6119,18.29462 38.9899,34.69942 40.8403,36.45546 l 3.3641,3.19272 -2.7634,3.70132 c -1.5187,2.03592 -3.3415,3.87633 -4.0481,4.09035 -0.7062,0.21349 -19.5137,-15.80756 -41.7927,-35.60378 z m 236.3219,32.14211 -3.7649,-3.92933 26.4252,-24.40664 c 14.5338,-13.4239 33.5053,-30.94215 42.1591,-38.9298 l 15.7337,-14.52264 3.7771,4.41311 3.7773,4.41304 -41.706,38.44563 c -22.9383,21.14519 -41.9154,38.44583 -42.1716,38.44583 -0.2592,0 -2.1596,-1.76909 -4.2299,-3.9292 z m -44.5828,-27.68911 c -1.8532,-0.73895 -3.5927,-1.56793 -3.8642,-1.83888 -0.4082,-0.40813 39.0582,-103.03409 40.1903,-104.50972 0.7776,-1.01337 10.1407,3.15989 10.1407,4.52138 0,1.42229 -4.613,13.45221 -28.2172,73.58894 -6.424,16.36645 -12.3995,29.71837 -13.2796,29.67062 -0.8808,-0.0353 -3.1164,-0.692 -4.97,-1.43254 z m -132.084,-49.82423 c -11.8696,-27.48608 -21.3413,-50.13195 -21.0484,-50.32386 0.2956,-0.18412 2.6737,-1.31142 5.2897,-2.48959 l 4.7572,-2.14027 21.5724,49.96341 c 11.8651,27.47988 21.4219,50.08706 21.238,50.23815 -0.7694,0.63221 -9.1385,4.72701 -9.6599,4.72701 -0.3119,0 -10.2793,-22.48864 -22.149,-49.97485 z m 70.4668,-19.11674 0,-58.14663 6.8406,0 6.8411,0 0,58.14663 0,58.14649 -6.8411,0 -6.8406,0 0,-58.14649 z"
               style="fill:#000000;fill-opacity:1" />
            <path
               inkscape:connector-curvature="0"
               id="path4145"
               d="m -2464.252,-1570.5189 c -38.3324,-0.41 -100.3805,1.9665 -103.3183,4.9141 -3.6274,3.6396 -6.8727,1054.84464 -3.3169,1074.70572 1.2891,7.20157 5.2055,13.23034 9.0911,14.25075 10.2471,2.69114 119.4726,2.8975 129.3625,0.2459 10.0875,-2.70467 520.1536,-538.06747 520.1536,-545.95247 0,-2.9098 -115.2119,-126.59 -256.0226,-274.819 -166.5306,-175.3042 -231.0236,-241.8668 -255.8997,-263.1482 l -6.634,-6.5112 -1.7199,0 c -1.8572,-1.2057 -3.4049,-2.0204 -4.4227,-2.2113 -4.4623,-0.8371 -14.4957,-1.3375 -27.2731,-1.4743 z m 371.3802,0.3686 c -161.662,0.035 -194.0241,1.314 -199.0196,5.0368 -7.2817,5.4268 7.026,20.3055 258.7255,272.2391 146.4882,146.6246 266.3422,268.3998 266.3422,270.5193 0,2.1194 -119.854,123.77176 -266.3422,270.39631 -251.6995,251.93363 -266.0072,266.93523 -258.7255,272.36195 6.6608,4.96384 62.0041,5.56503 407.6216,4.66834 219.909,-0.57069 401.2745,-2.49794 403.0763,-4.29978 4.2822,-4.28316 4.2822,-1082.09342 0,-1086.37652 -1.8018,-1.8019 -183.1673,-3.7294 -403.0763,-4.2998 -86.4041,-0.2241 -154.7144,-0.2572 -208.602,-0.246 z m 1038.7104,209.8304 c -31.472,-0.1677 -61.7934,2.008 -83.6621,6.8797 -66.1642,14.7395 -124.4076,55.5236 -148.0361,103.6868 -9.1008,18.5507 -10.862,24.7071 -11.1796,54.5461 0,0.3142 0,0.5404 0,0.8599 -1.0202,10.4603 -1.1539,20.9744 0,31.3272 0,0.1212 0,0.2473 0,0.3685 0.3889,28.0596 2.3124,35.3361 10.5652,52.949 22.4789,47.9722 70.8954,86.336 171.2552,135.75102 89.7048,44.16874 108.995,62.40227 108.7238,102.58108 -0.2833,41.82191 -20.1579,64.81216 -66.5856,76.90513 -62.4742,16.27243 -143.0468,-0.64045 -201.1082,-42.13812 -9.0105,-6.44 -18.2981,-10.53786 -20.6391,-9.09101 -2.7358,1.69087 -4.177,22.89693 -4.177,59.33733 l 0,56.63454 15.6024,8.10819 c 18.2843,9.32801 68.8598,21.86539 108.2321,26.90451 39.2437,5.02259 56.2275,5.03091 99.1414,0.24592 49.2082,-5.48704 92.64035,-19.46636 122.3602,-39.31252 27.75662,-18.53517 43.664,-37.28375 58.60002,-69.1654 9.0878,-19.39804 10.52743,-26.44245 10.68819,-60.44297 0,-0.56577 0.1219,-1.13906 0.1219,-1.71999 0.13737,-4.19258 0.17689,-8.32236 0,-12.53081 0,-0.36497 -0.10634,-0.74038 -0.1219,-1.10566 -0.13738,-34.94209 -1.43962,-40.69885 -12.0394,-63.02293 -25.158,-52.98427 -72.97969,-91.53511 -177.76641,-143.36771 -64.5991,-31.9539 -84.8249,-46.9442 -95.7012,-70.8855 -9.1379,-20.1142 -9.0003,-35.139 0.3692,-55.7745 16.5132,-36.3721 63.336,-54.7906 130.7141,-51.352 43.80196,2.2355 76.2517,11.3648 102.70388,28.8701 19.66923,13.0165 24.85962,13.3706 25.55311,-17.1992 0.48197,-8.1259 0.73717,-18.6159 0.73717,-32.6785 0,-20.1495 -0.39315,-31.2205 -1.71992,-38.3297 l -0.2438,-14.3736 -10.81084,-5.1598 c -23.64929,-11.3219 -79.1208,-18.0254 -131.5739,-18.3049 z m 637.72236,0.6144 c -70.1645,0.2451 -102.59028,7.3599 -157.25009,34.3983 -82.62698,40.8734 -142.08444,114.8105 -167.69222,208.6022 -7.17016,26.2619 -8.70023,42.4745 -8.9683,98.2812 -0.38533,80.4161 4.89478,106.43055 33.7844,166.58676 16.75617,34.89141 24.22162,45.33367 51.72036,72.72815 17.67251,17.60516 43.68599,38.65865 57.74014,46.80645 29.34609,17.013 76.95781,32.92677 114.00629,38.08393 61.59009,8.57344 168.85905,-4.74386 211.91927,-26.29017 l 21.99015,-10.93388 1.10587,-50.24621 c 0.8897,-40.57282 0,-50.59643 -4.54562,-52.33478 -3.08295,-1.18301 -16.40279,3.28541 -29.60708,9.95098 -67.63131,34.14004 -167.66713,36.90704 -228.13562,6.26541 -47.48403,-24.06202 -87.26199,-76.95401 -100.98394,-134.27677 -8.50736,-35.53962 -8.51363,-101.16667 0,-136.73387 19.95262,-83.3556 78.56487,-143.1549 158.72417,-162.0412 53.06912,-12.5035 133.41095,-2.1735 178.50356,22.9732 24.98193,13.9317 26.90433,10.5373 26.90433,-49.3864 0,-37.4742 -1.42039,-53.8674 -4.91409,-56.6345 -6.99962,-5.5443 -39.91282,-15.6051 -69.77966,-21.2534 -14.05423,-2.6577 -52.08906,-4.6586 -84.52192,-4.5454 z m 1167.58145,0 c -70.16452,0.2451 -102.59028,7.3599 -157.24993,34.3983 -82.62709,40.8734 -142.08444,114.8105 -167.69221,208.6022 -7.17026,26.2619 -8.70032,42.4745 -8.96841,98.2812 -0.3854,80.4161 4.8948,106.43055 33.78436,166.58676 16.7562,34.89141 24.22162,45.33367 51.72033,72.72815 17.67253,17.60516 43.68606,38.65865 57.74022,46.80645 29.34601,17.013 76.95784,32.92677 114.00631,38.08393 61.59015,8.57344 168.85905,-4.74386 211.91918,-26.29017 l 21.99032,-10.93388 1.10579,-50.24621 c 0.88962,-40.57282 0,-50.59643 -4.54571,-52.33478 -3.08286,-1.18301 -16.40229,3.28541 -29.60699,9.95098 -67.63091,34.14004 -167.66752,36.90704 -228.13564,6.26541 -47.48403,-24.06202 -87.26195,-76.95401 -100.98403,-134.27677 -8.50716,-35.53962 -8.51351,-101.16667 0,-136.73387 19.95273,-83.3556 78.56455,-143.1549 158.72431,-162.0412 53.06868,-12.5035 133.41091,-2.1735 178.50353,22.9732 24.98193,13.9317 26.90433,10.5373 26.90433,-49.3864 0,-37.4742 -1.4208,-53.8674 -4.91409,-56.6345 -6.99962,-5.5443 -39.91282,-15.6051 -69.77966,-21.2534 -14.05431,-2.6577 -52.08914,-4.6586 -84.52201,-4.5454 z m -602.09541,8.9681 c -96.380444,-0.2233 -220.684652,1.4386 -225.801141,4.177 -7.421121,3.9716 -7.494128,11.5942 -7.494128,319.537 0,240.17924 1.077515,316.68326 4.668257,320.27403 6.788496,6.78858 353.289772,6.78858 360.078272,0 3.11077,-3.11076 4.79099,-19.81564 4.79099,-49.01776 0,-39.7596 -0.78982,-44.62691 -7.61679,-48.28067 -4.75835,-2.54656 -51.91137,-4.0541 -125.9227,-4.0541 l -118.060568,0 0,-18.55055 0.860122,-64.98852 1.105464,-83.53905 104.178192,-1.10565 c 92.33685,-0.89874 104.73678,-1.75187 109.09224,-7.61684 7.68947,-10.35398 6.58558,-85.30729 -1.35122,-93.24439 -5.30483,-5.3046 -20.7908,-6.1425 -110.07498,-6.1425 l -103.809818,0 0,-17.6907 0.860122,-61.9171 1.105464,-79.6079 115.971982,-2.0884 c 63.78446,-1.1634 116.41413,-2.4901 116.95465,-2.9485 0.40088,-0.3396 0.58477,-14.4368 0.73709,-31.6957 0.44109,-8.683 0.41641,-18.2632 0.12193,-27.5188 -0.0986,-36.1331 -0.89946,-39.3044 -8.72269,-41.401 -5.97152,-1.6004 -53.844,-2.4455 -111.67185,-2.5799 z m 995.2206,0.2459 c -24.1929,0 -48.4963,1.2853 -53.4403,3.9313 -7.4195,3.9715 -7.4941,11.5941 -7.4941,319.5369 0,240.17925 1.0776,316.68328 4.6683,320.27409 3.1891,3.18905 21.4525,4.79119 56.2661,4.79119 34.8136,0 52.9543,-1.60214 56.1433,-4.79119 3.5908,-3.59081 4.791,-80.09484 4.791,-320.27409 0,-307.9428 -0.1965,-315.5654 -7.6168,-319.5369 -4.9439,-2.646 -29.1242,-3.9313 -53.3175,-3.9313 z m 316.343,711.43357 c -135.6313,0.0564 -125.6774,2.20883 -125.6774,33.41559 0,13.90403 2.0644,23.07168 6.1427,27.15018 5.4369,5.437 27.8442,6.26541 186.98,6.26541 117.1226,0 183.5289,-1.41806 188.4544,-4.05409 6.3076,-3.3757 7.6167,-8.39481 7.6167,-29.3615 0,-20.9667 -1.3091,-25.98581 -7.6167,-29.36149 -4.9255,-2.63604 -71.3318,-4.0541 -188.4544,-4.0541 -25.7717,0 -48.0693,-0.007 -67.4453,0 z m -2286.14542,48.52632 c -10.39586,0.85909 -20.86668,7.00786 -28.62424,18.42774 -7.83383,11.53125 -9.00806,17.36641 -7.73988,37.96114 1.55875,25.31179 8.69835,37.99829 24.81611,44.59514 11.02669,4.51319 12.31264,4.49051 27.76445,-1.96565 23.6602,-9.88573 32.81925,-47.98305 18.42768,-76.78217 -7.87513,-15.75919 -21.27784,-23.34074 -34.64412,-22.2362 z m -440.17698,0.98282 c -3.9049,0.13948 -8.9181,1.39149 -15.2337,3.56273 -19.5815,6.73169 -23.3933,11.00879 -20.0249,21.62186 2.0772,6.54493 5.0122,8.12363 12.1624,6.75686 9.0828,-1.73627 9.4594,-0.87218 9.4594,20.88473 0,20.84529 -0.7694,22.7882 -9.8281,25.06175 -7.0645,1.77315 -9.8282,5.14123 -9.8282,11.91661 0,5.18408 2.2114,10.33461 4.9141,11.42521 9.0702,3.65982 46.6172,2.63779 54.3004,-1.47423 10.5252,-5.63295 9.5208,-14.92509 -2.2112,-20.27052 -9.4001,-4.28298 -9.8282,-5.96241 -9.8282,-39.06679 0,-30.5246 -2.1681,-40.83574 -13.882,-40.41821 z m 90.4187,0 c -3.9049,0.13948 -8.918,1.39149 -15.2335,3.56273 -19.5817,6.73169 -23.3934,11.00879 -20.0251,21.62186 2.0773,6.54493 5.0124,8.12363 12.1625,6.75686 9.0828,-1.73627 9.4594,-0.87218 9.4594,20.88473 0,20.84529 -0.7694,22.7882 -9.8282,25.06175 -7.0644,1.77315 -9.8281,5.14123 -9.8281,11.91661 0,5.18408 2.2114,10.33461 4.9142,11.42521 9.07,3.65982 46.6171,2.63779 54.3003,-1.47423 10.5251,-5.63295 9.5207,-14.92509 -2.2114,-20.27052 -9.4,-4.28298 -9.8281,-5.96241 -9.8281,-39.06679 0,-30.5246 -2.168,-40.83574 -13.882,-40.41821 z m 86.4876,0 c -3.905,0.13948 -8.9181,1.39149 -15.2336,3.56273 -19.5816,6.73169 -23.3934,11.00879 -20.025,21.62186 2.0772,6.54493 5.0123,8.12363 12.1625,6.75686 9.0827,-1.73627 9.4593,-0.87218 9.4593,20.88473 0,20.84529 -0.7694,22.7882 -9.8281,25.06175 -7.0644,1.77315 -9.8282,5.14123 -9.8282,11.91661 0,5.18408 2.2113,10.33461 4.9142,11.42521 9.0701,3.65982 46.617,2.63779 54.3004,-1.47423 10.5251,-5.63295 9.5207,-14.92509 -2.2114,-20.27052 -9.4,-4.28298 -9.8282,-5.96241 -9.8282,-39.06679 0,-30.5246 -2.168,-40.83574 -13.8819,-40.41821 z m 90.41865,0 c -3.90485,0.13948 -8.91805,1.39149 -15.23355,3.56273 -19.5816,6.73169 -23.3933,11.00879 -20.025,21.62186 2.0773,6.54493 5.0123,8.12363 12.1625,6.75686 9.0827,-1.73627 9.4594,-0.87218 9.4594,20.88473 0,20.84529 -0.7693,22.7882 -9.8282,25.06175 -7.0644,1.77315 -9.8281,5.14123 -9.8281,11.91661 0,5.18408 2.2114,10.33461 4.9141,11.42521 9.0702,3.65982 46.61718,2.63779 54.30042,-1.47423 10.5251,-5.63295 9.52067,-14.92509 -2.21141,-20.27052 -9.39999,-4.28298 -9.8281,-5.96241 -9.8281,-39.06679 0,-30.5246 -2.16807,-40.83574 -13.88206,-40.41821 z m 86.48759,0 c -3.90493,0.13948 -8.91802,1.39149 -15.2336,3.56273 -19.58155,6.73169 -23.39335,11.00879 -20.02497,21.62186 2.07721,6.54493 5.01227,8.12363 12.16238,6.75686 9.08287,-1.73627 9.45948,-0.87218 9.45948,20.88473 0,20.84529 -0.76944,22.7882 -9.8281,25.06175 -7.06447,1.77315 -9.82818,5.14123 -9.82818,11.91661 0,5.18408 2.21134,10.33461 4.91409,11.42521 9.07023,3.65982 46.61715,2.63779 54.30036,-1.47423 10.52517,-5.63295 9.52067,-14.92509 -2.21133,-20.27052 -9.39996,-4.28298 -9.82815,-5.96241 -9.82815,-39.06679 0,-30.5246 -2.16807,-40.83574 -13.88198,-40.41821 z m 176.90625,0 c -3.90494,0.13948 -8.91803,1.39149 -15.2336,3.56273 -19.58156,6.73169 -23.39328,11.00879 -20.02498,21.62186 2.07722,6.54493 5.01227,8.12363 12.16247,6.75686 9.08278,-1.73627 9.45939,-0.87218 9.45939,20.88473 0,20.84529 -0.76935,22.7882 -9.8281,25.06175 -7.06447,1.77315 -9.82817,5.14123 -9.82817,11.91661 0,5.18408 2.21133,10.33461 4.91408,11.42521 9.07024,3.65982 46.61715,2.63779 54.3004,-1.47423 10.52509,-5.63295 9.52074,-14.92509 -2.21126,-20.27052 -9.40007,-4.28298 -9.82817,-5.96241 -9.82817,-39.06679 0,-30.5246 -2.16815,-40.83574 -13.88206,-40.41821 z m 90.41884,0 c -3.90502,0.13948 -8.91819,1.39149 -15.23368,3.56273 -19.58155,6.73169 -23.39327,11.00879 -20.02506,21.62186 2.07738,6.54493 5.01244,8.12363 12.16255,6.75686 9.08278,-1.73627 9.45939,-0.87218 9.45939,20.88473 0,20.84529 -0.76935,22.7882 -9.82818,25.06175 -7.06439,1.77315 -9.82809,5.14123 -9.82809,11.91661 0,5.18408 2.21134,10.33461 4.91409,11.42521 9.07015,3.65982 46.61714,2.63779 54.30039,-1.47423 10.52517,-5.63295 9.52066,-14.92509 -2.21134,-20.27052 -9.39998,-4.28298 -9.82809,-5.96241 -9.82809,-39.06679 0,-30.5246 -2.16807,-40.83574 -13.88198,-40.41821 z m 86.48751,0 c -3.90502,0.13948 -8.9181,1.39149 -15.23368,3.56273 -19.58155,6.73169 -23.39327,11.00879 -20.02498,21.62186 2.0773,6.54493 5.01228,8.12363 12.16255,6.75686 9.0827,-1.73627 9.45931,-0.87218 9.45931,20.88473 0,20.84529 -0.76935,22.7882 -9.82809,25.06175 -7.06448,1.77315 -9.82818,5.14123 -9.82818,11.91661 0,5.18408 2.21134,10.33461 4.91409,11.42521 9.07023,3.65982 46.61714,2.63779 54.30039,-1.47423 10.52517,-5.63295 9.52075,-14.92509 -2.21134,-20.27052 -9.39998,-4.28298 -9.82817,-5.96241 -9.82817,-39.06679 0,-30.5246 -2.16799,-40.83574 -13.8819,-40.41821 z m 90.41868,0 c -3.90493,0.13948 -8.91802,1.39149 -15.2336,3.56273 -19.58155,6.73169 -23.39327,11.00879 -20.02505,21.62186 2.07738,6.54493 5.01243,8.12363 12.16255,6.75686 9.08278,-1.73627 9.45947,-0.87218 9.45947,20.88473 0,20.84529 -0.76944,22.7882 -9.82826,25.06175 -7.06439,1.77315 -9.8281,5.14123 -9.8281,11.91661 0,5.18408 2.21134,10.33461 4.91409,11.42521 9.07015,3.65982 46.61715,2.63779 54.30039,-1.47423 10.52518,-5.63295 9.52067,-14.92509 -2.21133,-20.27052 -9.39999,-4.28298 -9.8281,-5.96241 -9.8281,-39.06679 0,-30.5246 -2.16806,-40.83574 -13.88206,-40.41821 z m 86.48751,0 c -3.90493,0.13948 -8.91794,1.39149 -15.2336,3.56273 -19.58147,6.73169 -23.39327,11.00879 -20.02497,21.62186 2.07721,6.54493 5.01227,8.12363 12.16255,6.75686 9.0827,-1.73627 9.4593,-0.87218 9.4593,20.88473 0,20.84529 -0.76927,22.7882 -9.82809,25.06175 -7.06448,1.77315 -9.82818,5.14123 -9.82818,11.91661 0,5.18408 2.21134,10.33461 4.91409,11.42521 9.07023,3.65982 46.61723,2.63779 54.30039,-1.47423 10.52518,-5.63295 9.52075,-14.92509 -2.21125,-20.27052 -9.40007,-4.28298 -9.82818,-5.96241 -9.82818,-39.06679 0,-30.5246 -2.16815,-40.83574 -13.88206,-40.41821 z m -441.52856,25.06171 c 1.87914,-0.0564 3.3168,0.82933 3.3168,2.82564 0,1.80063 -3.72249,5.5382 -8.23088,8.35388 -7.22875,4.51446 -8.08145,4.27518 -6.87968,-1.96567 0.92189,-4.78639 7.65929,-9.09061 11.79376,-9.21385 z m 8.72223,33.04711 c 0.6785,-0.11624 1.29613,-0.0564 1.59729,0.24592 0.86835,0.86841 0.31851,5.21796 -1.10588,9.7053 -2.53799,7.99659 -17.6906,11.90696 -17.6906,4.54546 0,-3.69585 12.44994,-13.68323 17.19919,-14.49645 z"
               style="fill:#000000" />
          </g>
          <text
             id="text8664"
             y="3089.2666"
             x="-403.8996"
             style="font-size:260.13339233px;font-style:normal;font-variant:normal;font-weight:bold;font-stretch:normal;text-align:center;text-anchor:middle;color:#000000;fill:#000000;fill-opacity:1;fill-rule:nonzero;stroke:none;stroke-width:47.68225861;marker:none;visibility:visible;display:inline;overflow:visible;enable-background:accumulate;font-family:Cantarell;-inkscape-font-specification:Cantarell Bold"
             xml:space="preserve"><tspan
               id="tspan8668"
               style="text-align:center;text-anchor:middle;stroke:none"
               y="3089.2666"
               x="-368.33459"
               sodipodi:role="line">Presentacin de grupos de estudio: </tspan><tspan
               id="tspan8672"
               style="text-align:center;text-anchor:middle;stroke:none"
               y="3414.4333"
               x="-403.89966"
               sodipodi:role="line">VIERNES 26 / 02 / 2016 12:00</tspan><tspan
               id="tspan8769"
               style="text-align:center;text-anchor:middle;stroke:none"
               y="3739.6001"
               x="-403.89966"
               sodipodi:role="line">en las gradas de la carrera...</tspan></text>
          <path
             sodipodi:nodetypes="ssssssssssssssssss"
             inkscape:connector-curvature="0"
             id="rect8674"
             d="m -2510.7754,-2068.5053 c -322.3169,0 -583.3438,261.0581 -583.3438,583.375 l 0,4913.3856 c 0,322.3169 261.0269,583.3438 583.3438,583.3438 l 4234.5624,0 c 322.3169,0 583.3438,-261.0269 583.3438,-583.3438 l 0,-4913.3856 c 0,-322.3169 -261.0269,-583.375 -583.3438,-583.375 z m 0,100 4234.5624,0 c 268.6466,0 483.3438,214.7284 483.3438,483.375 l 0,4913.3856 c 0,268.6466 -214.6972,483.3438 -483.3438,483.3438 l -4234.5624,0 c -268.6466,0 -483.3438,-214.6972 -483.3438,-483.3438 l 0,-4913.3856 c 0,-268.6466 214.6972,-483.375 483.3438,-483.375 z"
             style="font-size:medium;font-style:normal;font-variant:normal;font-weight:normal;font-stretch:normal;text-indent:0;text-align:start;text-decoration:none;line-height:normal;letter-spacing:normal;word-spacing:normal;text-transform:none;direction:ltr;block-progression:tb;writing-mode:lr-tb;text-anchor:start;baseline-shift:baseline;color:#000000;fill:#000000;fill-opacity:1;fill-rule:nonzero;stroke:none;stroke-width:100;marker:none;visibility:visible;display:inline;overflow:visible;enable-background:accumulate;font-family:Sans;-inkscape-font-specification:Sans" />
        </g>
        <use
           height="990"
           width="765"
           transform="translate(362.03867,0)"
           id="use10754"
           xlink:href="#g8771"
           y="0"
           x="0" />
        <use
           height="990"
           width="765"
           transform="translate(362.03867,626.49661)"
           id="use10760"
           xlink:href="#g8771"
           y="0"
           x="0" />
        <use
           x="0"
           y="0"
           xlink:href="#g8771"
           id="use10762"
           transform="translate(0,626.49661)"
           width="765"
           height="990" />
      </g>
    </g>
  </g>
</svg>
