<?xml version="1.0" encoding="UTF-8" standalone="no"?>
<!-- Created with Inkscape (http://www.inkscape.org/) -->

<svg
   xmlns:dc="http://purl.org/dc/elements/1.1/"
   xmlns:cc="http://creativecommons.org/ns#"
   xmlns:rdf="http://www.w3.org/1999/02/22-rdf-syntax-ns#"
   xmlns:svg="http://www.w3.org/2000/svg"
   xmlns="http://www.w3.org/2000/svg"
   xmlns:sodipodi="http://sodipodi.sourceforge.net/DTD/sodipodi-0.dtd"
   xmlns:inkscape="http://www.inkscape.org/namespaces/inkscape"
   width="692.85376"
   height="1143.2777"
   id="svg3098"
   version="1.1"
   inkscape:version="0.48.5 r10040"
   sodipodi:docname="realy-guild-invite.svg"
   inkscape:export-filename="/home/vg/Vitacora/trash/guild-invite.png"
   inkscape:export-xdpi="90"
   inkscape:export-ydpi="90">
  <defs
     id="defs3100" />
  <sodipodi:namedview
     id="base"
     pagecolor="#ffffff"
     bordercolor="#666666"
     borderopacity="1.0"
     inkscape:pageopacity="0.0"
     inkscape:pageshadow="2"
     inkscape:zoom="0.5"
     inkscape:cx="364.20259"
     inkscape:cy="570.97876"
     inkscape:document-units="px"
     inkscape:current-layer="layer1"
     showgrid="false"
     inkscape:window-width="1366"
     inkscape:window-height="715"
     inkscape:window-x="0"
     inkscape:window-y="0"
     inkscape:window-maximized="1"
     fit-margin-top="10"
     fit-margin-left="10"
     fit-margin-right="10"
     fit-margin-bottom="10" />
  <metadata
     id="metadata3103">
    <rdf:RDF>
      <cc:Work
         rdf:about="">
        <dc:format>image/svg+xml</dc:format>
        <dc:type
           rdf:resource="http://purl.org/dc/dcmitype/StillImage" />
        <dc:title></dc:title>
      </cc:Work>
    </rdf:RDF>
  </metadata>
  <g
     inkscape:label="Layer 1"
     inkscape:groupmode="layer"
     id="layer1"
     transform="translate(212.28312,166.08331)">
    <g
       id="g5233"
       transform="matrix(-1.111251,0,0,1.111251,289.09423,-9.267693)">
      <path
         inkscape:transform-center-x="10.40856"
         inkscape:transform-center-y="-30.807337"
         sodipodi:nodetypes="cccccccccccccc"
         inkscape:connector-curvature="0"
         id="path3106"
         d="m 122.0344,77.166761 -23.313733,31.327209 17.607713,33.98492 24.68046,-9.31911 -6.08527,-17.90016 -13.35643,4.5406 -3.67128,-10.79927 37.54172,-12.762549 3.67128,10.799269 -13.35643,4.54061 6.1255,18.01851 12.02106,-2.53068 -7.67802,-38.119738 z"
         style="color:#000000;fill:#000000;fill-opacity:1;fill-rule:nonzero;stroke:#000000;stroke-width:0.89988673;stroke-linecap:round;stroke-linejoin:round;stroke-miterlimit:4;stroke-opacity:1;stroke-dasharray:none;marker:none;visibility:visible;display:inline;overflow:visible;enable-background:accumulate" />
      <path
         sodipodi:nodetypes="cccccc"
         inkscape:connector-curvature="0"
         id="path3115"
         d="m 110.89286,146.64789 50.89285,0 -8.27346,38.377 -17.69566,8.2187 -18.69235,-7.59305 z"
         style="color:#000000;fill:#000000;fill-opacity:1;fill-rule:nonzero;stroke:none;stroke-width:1;marker:none;visibility:visible;display:inline;overflow:visible;enable-background:accumulate" />
      <path
         sodipodi:nodetypes="ccccc"
         inkscape:connector-curvature="0"
         id="path3117"
         d="m 164.64286,147.71932 -6.42857,26.07143 32.03261,-35.93086 -5.85095,-9.92399 z"
         style="color:#000000;fill:#000000;fill-opacity:1;fill-rule:nonzero;stroke:none;stroke-width:1;marker:none;visibility:visible;display:inline;overflow:visible;enable-background:accumulate" />
      <path
         sodipodi:nodetypes="ccccc"
         inkscape:connector-curvature="0"
         id="path3119"
         d="M 183.21428,119.1479 195.71429,143.79075 200,90.93361 194.28571,85.933609 z"
         style="color:#000000;fill:#000000;fill-opacity:1;fill-rule:nonzero;stroke:none;stroke-width:1;marker:none;visibility:visible;display:inline;overflow:visible;enable-background:accumulate" />
      <rect
         y="58.790756"
         x="179.64287"
         height="14.285714"
         width="34.642857"
         id="rect3121"
         style="color:#000000;fill:#000000;fill-opacity:1;fill-rule:nonzero;stroke:none;stroke-width:1;marker:none;visibility:visible;display:inline;overflow:visible;enable-background:accumulate" />
      <rect
         transform="matrix(0,1,-1,0,0,0)"
         style="color:#000000;fill:#000000;fill-opacity:1;fill-rule:nonzero;stroke:none;stroke-width:1;marker:none;visibility:visible;display:inline;overflow:visible;enable-background:accumulate"
         id="rect3123"
         width="31.785715"
         height="11.428572"
         x="59.683617"
         y="-202.67859" />
      <path
         transform="matrix(0,1,-1,0,0,0)"
         sodipodi:nodetypes="cccccc"
         inkscape:connector-curvature="0"
         id="rect3125"
         d="m -16.227099,-208.51194 73.399478,4.83334 0,13.42858 -73.399478,4.83334 -17.321425,-10.46498 z"
         style="color:#000000;fill:#000000;fill-opacity:1;fill-rule:nonzero;stroke:none;stroke-width:1;marker:none;visibility:visible;display:inline;overflow:visible;enable-background:accumulate" />
      <path
         style="color:#000000;fill:#000000;fill-opacity:1;fill-rule:nonzero;stroke:none;stroke-width:1;marker:none;visibility:visible;display:inline;overflow:visible;enable-background:accumulate"
         d="m 112.85715,177.00504 -4.28572,-27.5 -32.032612,35.93086 5.85095,9.92399 z"
         id="path3128"
         inkscape:connector-curvature="0"
         sodipodi:nodetypes="ccccc" />
      <path
         style="color:#000000;fill:#000000;fill-opacity:1;fill-rule:nonzero;stroke:none;stroke-width:1;marker:none;visibility:visible;display:inline;overflow:visible;enable-background:accumulate"
         d="m 83.571438,204.14789 -12.50001,-24.64285 -4.28571,52.85714 5.71429,5 z"
         id="path3130"
         inkscape:connector-curvature="0"
         sodipodi:nodetypes="ccccc" />
      <path
         sodipodi:nodetypes="ccccccc"
         inkscape:connector-curvature="0"
         id="path3132"
         d="m 117.85715,191.2285 17.48033,8.33879 17.16252,-6.74967 4.64286,19.90171 -20.35715,13.21428 -25.71428,-13.21429 z"
         style="color:#000000;fill:#000000;fill-opacity:1;fill-rule:nonzero;stroke:none;stroke-width:1;marker:none;visibility:visible;display:inline;overflow:visible;enable-background:accumulate" />
      <path
         sodipodi:nodetypes="cccccccccc"
         inkscape:connector-curvature="0"
         id="path3134"
         d="m 111.78571,215.21932 16.07143,8.92858 -7.43762,25.38651 3.96965,21.28227 -10.4606,-12.74021 -9.64286,1.07143 -2.19642,10.07142 -6.017861,-16.85714 7.500001,-6.78571 z"
         style="color:#000000;fill:#000000;fill-opacity:1;fill-rule:nonzero;stroke:none;stroke-width:1;marker:none;visibility:visible;display:inline;overflow:visible;enable-background:accumulate" />
      <path
         style="color:#000000;fill:#000000;fill-opacity:1;fill-rule:nonzero;stroke:none;stroke-width:1;marker:none;visibility:visible;display:inline;overflow:visible;enable-background:accumulate"
         d="M 157.14286,215.21932 141.07143,224.1479 155,258.07647 l 9.64286,1.07143 6.07142,8.57142 2.14286,-15.35714 -7.5,-6.78571 z"
         id="path3136"
         inkscape:connector-curvature="0" />
      <path
         sodipodi:nodetypes="ccccccc"
         inkscape:connector-curvature="0"
         id="path3138"
         d="m 104.60944,260.27788 9.38598,-0.76207 9.30479,11.87163 -16.5145,39.90331 -4.28571,4.28572 -4.999999,-8.57143 z"
         style="color:#000000;fill:#000000;fill-opacity:1;fill-rule:nonzero;stroke:none;stroke-width:1;marker:none;visibility:visible;display:inline;overflow:visible;enable-background:accumulate" />
      <path
         style="color:#000000;fill:#000000;fill-opacity:1;fill-rule:nonzero;stroke:none;stroke-width:1;marker:none;visibility:visible;display:inline;overflow:visible;enable-background:accumulate"
         d="m 164.19077,260.27788 -9.38598,-0.76207 -5.05479,11.87163 12.2645,39.90331 6.78571,0.0357 2.5,-4.32143 0.0898,-35.70219 z"
         id="path3159"
         inkscape:connector-curvature="0"
         sodipodi:nodetypes="cccccccc" />
      <path
         sodipodi:nodetypes="ccccccccccccccc"
         inkscape:connector-curvature="0"
         id="path3161"
         d="m 112.94254,301.74105 -5.64905,10.39424 -4.93978,6.42683 -6.171173,-11.48231 0.673325,-7.39942 -4.684798,7.25947 0.404301,10.86891 -13.596295,1.70532 -5.517331,13.48067 11.418059,1.99275 7.94104,-2.85046 9.243242,0.69822 10.24255,-2.55088 0.62691,-12.05651 z"
         style="color:#000000;fill:#000000;fill-opacity:1;fill-rule:nonzero;stroke:none;stroke-width:1;marker:none;visibility:visible;display:inline;overflow:visible;enable-background:accumulate" />
      <path
         inkscape:connector-curvature="0"
         id="path3163"
         d="m 156.2706,330.0526 1.41421,-8.83883 12.19759,-6.89429 10.78338,6.18718 2.12132,10.25305 -9.8995,3.0052 z"
         style="color:#000000;fill:#000000;fill-opacity:1;fill-rule:nonzero;stroke:none;stroke-width:1;marker:none;visibility:visible;display:inline;overflow:visible;enable-background:accumulate" />
      <path
         inkscape:connector-curvature="0"
         id="path3165"
         d="m 149.19953,293.10627 4.94975,9.54595 0,26.87005 1.94454,-10.6066 13.43503,-6.01041 -8.13173,0.17678 -9.01561,-26.33973 z"
         style="color:#000000;fill:#000000;fill-opacity:1;fill-rule:nonzero;stroke:none;stroke-width:1;marker:none;visibility:visible;display:inline;overflow:visible;enable-background:accumulate" />
      <path
         sodipodi:nodetypes="ccccc"
         inkscape:connector-curvature="0"
         id="path3167"
         d="m 144,191.86218 -8.25,18 -6.75,-16.75 7.75,-12.75 z"
         style="color:#000000;fill:#000000;fill-opacity:1;fill-rule:nonzero;stroke:none;stroke-width:1;marker:none;visibility:visible;display:inline;overflow:visible;enable-background:accumulate" />
      <path
         inkscape:connector-curvature="0"
         id="path3169"
         d="m 66.821591,234.76997 5.656854,5.48007 3.181981,8.83884 -3.712311,6.89429 0,-6.54074 -4.419417,-4.94975 0,11.31371 7.071068,5.3033 -12.197592,-3.35875 -3.181981,-17.32412 z"
         style="color:#000000;fill:#000000;fill-opacity:1;fill-rule:nonzero;stroke:none;stroke-width:1;marker:none;visibility:visible;display:inline;overflow:visible;enable-background:accumulate" />
    </g>
    <g
       id="g5273"
       transform="matrix(-0.91959326,0,0,0.91959326,307.30988,-19.692125)">
      <path
         sodipodi:nodetypes="ccccccccccccc"
         inkscape:connector-curvature="0"
         id="path3173"
         d="m -88.838095,160.42236 28.026912,-64.775653 24.04163,-9.899495 19.091883,24.041628 14.8492429,50.91169 -27.5771649,15.55635 9.192389,-19.09189 -6.613961,-24.62741 -16.013456,3.41421 -10.263456,-5.03553 -13.363962,23.7561 23.627417,22.29163 z"
         style="color:#000000;fill:#000000;fill-opacity:1;fill-rule:nonzero;stroke:none;stroke-width:1;marker:none;visibility:visible;display:inline;overflow:visible;enable-background:accumulate" />
      <path
         sodipodi:nodetypes="ccccccccc"
         inkscape:connector-curvature="0"
         id="path3177"
         d="m -41.012193,173.0749 8.838835,-0.35355 0.707106,7.42462 5.303301,-3.18198 -2.12132,11.3137 -7.424621,2.12133 -3.181981,-4.5962 -6.717514,-3.53553 z"
         style="color:#000000;fill:#000000;fill-opacity:1;fill-rule:nonzero;stroke:none;stroke-width:1;marker:none;visibility:visible;display:inline;overflow:visible;enable-background:accumulate" />
      <path
         inkscape:connector-curvature="0"
         id="path3179"
         d="m -46.315494,178.3782 -3.181981,5.3033 8.485282,3.18198 4.24264,6.01041 -16.617009,0.35355 -11.667262,-14.49569 -16.617009,-0.35355 -24.395187,-10.96016 7.071071,-4.59619 -2.474871,-7.07107 14.495686,-7.07106 -5.656854,13.43502 z"
         style="color:#000000;fill:#000000;fill-opacity:1;fill-rule:nonzero;stroke:none;stroke-width:1;marker:none;visibility:visible;display:inline;overflow:visible;enable-background:accumulate" />
      <path
         inkscape:connector-curvature="0"
         id="path3181"
         d="m -3.8890873,164.94317 -20.1525437,22.62742 1.414214,-10.96016 z"
         style="color:#000000;fill:#000000;fill-opacity:1;fill-rule:nonzero;stroke:none;stroke-width:1;marker:none;visibility:visible;display:inline;overflow:visible;enable-background:accumulate" />
      <path
         sodipodi:nodetypes="cccccccccccccccccccc"
         inkscape:connector-curvature="0"
         id="path3183"
         d="m -103.88273,171.72135 23.115282,15.21015 13.142135,-3.76777 7.285534,16.07412 20.034693,-2.47487 -20.034693,23.68807 10.90123,32.17336 -5.892556,26.16295 1.178511,-25.45584 -7.954951,-9.8995 -7.954952,29.34494 -30.052043,36.06244 10.606606,-22.27386 -5.008671,-12.37437 -12.963635,9.19239 -28.5789,24.74873 -3.24091,-59.04341 33.88221,-25.10229 -5.9909,-38.63352 z"
         style="color:#000000;fill:#000000;fill-opacity:1;fill-rule:nonzero;stroke:none;stroke-width:1;marker:none;visibility:visible;display:inline;overflow:visible;enable-background:accumulate" />
      <path
         sodipodi:nodetypes="cccccccccc"
         inkscape:connector-curvature="0"
         id="path3185"
         d="m -3.5355339,170.24647 -19.7989901,23.68808 -13.435029,8.13173 -16.617009,19.79899 7.071068,30.05204 -4.596194,25.45584 30.221126,10.41156 1.598678,-64.85878 29.324629,-14.43408 z"
         style="color:#000000;fill:#000000;fill-opacity:1;fill-rule:nonzero;stroke:none;stroke-width:1;marker:none;visibility:visible;display:inline;overflow:visible;enable-background:accumulate" />
      <path
         style="color:#000000;fill:#000000;fill-opacity:1;fill-rule:nonzero;stroke:none;stroke-width:1;marker:none;visibility:visible;display:inline;overflow:visible;enable-background:accumulate"
         d="m -28.28427,335.3559 1.41421,-8.83883 12.19759,-6.89429 10.7833799,6.18718 2.12132,10.25305 -9.8994999,3.0052 z"
         id="path3191"
         inkscape:connector-curvature="0" />
      <path
         sodipodi:nodetypes="cccccccccccccccc"
         style="color:#000000;fill:#000000;fill-opacity:1;fill-rule:nonzero;stroke:none;stroke-width:1;marker:none;visibility:visible;display:inline;overflow:visible;enable-background:accumulate"
         d="m -35.35534,298.40957 4.94975,9.54595 0,26.87005 1.94454,-10.6066 13.43503,-6.01041 9.5459396,-31.64303 -7.8518066,-40.96419 43.294914,-44.79668 3.142236,-6.16223 -4.765317,-18.99024 -29.6463855,-4.85059 16.6390245,37.82553 -32.428164,17.3384 -1.069772,67.56986 -22.846844,-10.32861 z"
         id="path3193"
         inkscape:connector-curvature="0" />
      <path
         sodipodi:nodetypes="ccccccc"
         inkscape:connector-curvature="0"
         id="path3195"
         d="m -89.449016,340.30565 -1.41421,-8.83883 -12.197584,-6.89429 -10.78338,6.18718 -2.12132,10.25305 9.8995,3.0052 z"
         style="color:#000000;fill:#000000;fill-opacity:1;fill-rule:nonzero;stroke:none;stroke-width:1;marker:none;visibility:visible;display:inline;overflow:visible;enable-background:accumulate" />
      <path
         inkscape:connector-curvature="0"
         id="path3197"
         d="m -83.026126,303.35932 -4.124792,9.54595 0,26.87005 -1.62045,-10.6066 -11.195857,-6.01041 -4.714055,-3.35876 -5.99091,-33.40315 14.838605,-7.65026 2.59966,7.32347 -9.420495,27.61833 32.59192,-37.19867 z"
         style="color:#000000;fill:#000000;fill-opacity:1;fill-rule:nonzero;stroke:none;stroke-width:1;marker:none;visibility:visible;display:inline;overflow:visible;enable-background:accumulate"
         sodipodi:nodetypes="cccccccccccc" />
      <path
         sodipodi:nodetypes="ccccccccccccccccccccccccccccccc"
         inkscape:connector-curvature="0"
         id="path3199"
         d="M 32.53125,55.34375 4.25,85.03125 l 14.125,35.375 16.96875,16.96875 -5.65625,28.28125 8.9375,29 -6.5,27.0625 L 9.90625,250.5 l 15.5625,16.96875 0,16.96875 -11.3125,21.21875 12.71875,26.875 24.03125,5.65625 -22.625,-25.46875 15.5625,-5.65625 0,-31.09375 L 30.125,250 46.65625,227.875 60.8125,189.6875 47.09375,161.65625 57.96875,135.9375 28.28125,116.15625 18.375,86.46875 33.9375,65.25 50.90625,82.21875 39.59375,87.875 45.25,120.40625 67.875,107.65625 72.125,83.625 60.8125,55.34375 z"
         style="color:#000000;fill:#000000;fill-opacity:1;fill-rule:nonzero;stroke:none;stroke-width:1;marker:none;visibility:visible;display:inline;overflow:visible;enable-background:accumulate" />
    </g>
    <g
       id="g5385"
       transform="translate(-35.012194,-34.698485)">
      <path
         sodipodi:nodetypes="ccccccccccccccccccccccc"
         inkscape:connector-curvature="0"
         id="path5216"
         d="m -42.433093,204.54651 -0.893236,3.6495 0.345459,2.7267 3.110373,19.09488 -0.992568,4.68358 5.02857,7.55832 1.768473,2.50096 4.113031,-2.15782 6.546534,-16.72297 -5.477431,-4.61257 12.684577,-14.4143 -4.900859,-0.28828 -17.297151,8.93686 -0.864858,-3.17114 -2.594573,0 4.612574,-5.47744 z m 7.315254,64.7963 -3.855823,2.34232 -18.990831,-1.98196 -3.495466,3.45537 10.090005,50.73831 z"
         style="color:#000000;fill:#000000;fill-opacity:1;fill-rule:nonzero;stroke:none;stroke-width:1;marker:none;visibility:visible;display:inline;overflow:visible;enable-background:accumulate" />
      <path
         id="rect5167"
         d="m 27.151904,95.826709 -16.828686,11.026931 10.810719,10.19811 5.621574,-2.018 -3.099072,5.08104 2.414394,3.31529 -5.297253,2.84682 -8.900826,4.14411 8.86479,15.09897 22.918725,-35.71141 -16.504365,-13.981861 z m -74.738106,45.729341 -4.144109,4.82879 10.810719,0.32432 -2.342322,12.57647 -1.513501,16.72058 -8.720647,5.36932 1.081072,15.31519 -4.648609,5.18914 -3.639609,29.47723 2.738715,5.58554 2.162144,4.39636 10.702612,-2.59457 2.19818,-4.75672 1.909894,-4.07204 -3.891859,-29.22498 1.369357,-10.12604 5.621575,-29.87362 5.621574,21.51333 -0.252251,0.18018 -0.900893,4.21618 -4.540502,5.15311 33.5132301,-11.71161 1.7297151,-1.94593 -3.2432158,-14.0179 -13.5133994,9.33326 -0.864857,-11.67558 -5.585539,-7.13508 -7.099039,-3.027 -3.71168,-6.81075 -10.846755,-3.20718 z m 42.7023414,41.47713 -32.4321584,13.80168 1.153144,5.40536 19.279116,-5.87382 11.9998984,-13.33322 z"
         style="color:#000000;fill:#000000;fill-opacity:1;fill-rule:nonzero;stroke:none;stroke-width:1;marker:none;visibility:visible;display:inline;overflow:visible;enable-background:accumulate"
         inkscape:connector-curvature="0" />
      <path
         sodipodi:nodetypes="ccccccccccccccccccccccccc"
         inkscape:connector-curvature="0"
         id="path3222"
         d="m -29.356389,105.38201 -5.741893,-6.080161 3.940937,-8.57718 -8.342082,-11.80156 -7.401427,10.91407 -10.619367,-1.37871 -3.064479,9.12131 -9.003755,7.108391 9.567031,9.0081 -4.157139,14.71226 11.235964,5.82605 -12.068246,17.89431 13.732831,-0.41616 -2.496878,23.72035 -6.242196,5.40991 12.068245,-5.40991 5.409915,-27.88182 -10.819818,-0.83229 7.490635,-13.73283 -9.987513,-7.90678 4.258109,-10.71884 -6.141227,-10.26519 12.900538,-0.44139 -3.942931,-4.791811 z"
         style="color:#000000;fill:#000000;fill-opacity:1;fill-rule:nonzero;stroke:none;stroke-width:1;marker:none;visibility:visible;display:inline;overflow:visible;enable-background:accumulate" />
      <path
         sodipodi:nodetypes="ccccccccccccccccccccccccc"
         inkscape:connector-curvature="0"
         id="path3224"
         d="m -10.187287,65.273948 -22.372015,18.192501 4.576538,5.83779 -4.576538,9.15307 5.008966,4.576541 21.2250461,-9.153071 -6.6666101,13.729611 16.2160789,12.07197 -8.3242539,8.72065 14.9908642,19.96379 -18.3061515,5.4414 8.06688384,25.47832 6.92398036,-3.0074 0,-18.32681 L 22.791581,154.20459 9.0619674,128.40301 24.052832,122.99765 1.5665353,101.7726 7.8007168,90.961879 z M 6.5755019,179.62621 -0.57706607,181.50113 -12.559471,196.65468 6.5755019,182.09625 z"
         style="color:#000000;fill:#000000;fill-opacity:1;fill-rule:nonzero;stroke:none;stroke-width:1;marker:none;visibility:visible;display:inline;overflow:visible;enable-background:accumulate" />
      <path
         sodipodi:nodetypes="cccccccccccccccccccc"
         inkscape:connector-curvature="0"
         id="path3320"
         d="m -2.5888746,118.01554 -25.7007754,15.10279 -22.988364,-8.8606 6.308098,8.76072 -3.171917,5.22545 11.884423,3.97524 4.046715,8.13452 7.447784,2.71348 5.527593,7.55052 0.608525,8.84321 7.843635,-7.03612 0.450326,-10.2852 16.229709,-4.64034 -8.7415188,-8.73526 -7.6510142,1.30735 -7.490635,-2.08074 7.71619,-1.02287 6.3384831,-2.6241 -4.4312879,-6.51408 z"
         style="color:#000000;fill:#000000;fill-opacity:1;fill-rule:nonzero;stroke:none;stroke-width:1;marker:none;visibility:visible;display:inline;overflow:visible;enable-background:accumulate" />
      <path
         inkscape:connector-curvature="0"
         id="path5179"
         d="m -44.162808,240.85574 -9.513433,5.18915 6.054003,10.95486 11.243148,-1.72972 -0.576571,-12.108 z"
         style="color:#000000;fill:#000000;fill-opacity:1;fill-rule:nonzero;stroke:none;stroke-width:1;marker:none;visibility:visible;display:inline;overflow:visible;enable-background:accumulate" />
      <path
         inkscape:connector-curvature="0"
         id="path5181"
         d="m -32.054802,245.18003 42.089734,-18.4503 24.792583,-63.99945 -18.450294,74.37775 -55.350883,33.44115 -43.81945,-4.61257 -39.206878,-54.19774 45.549167,42.66631 20.18001,-1.72972 8.072003,8.64858 13.26115,-2.30629 z"
         style="color:#000000;fill:#000000;fill-opacity:1;fill-rule:nonzero;stroke:none;stroke-width:1;marker:none;visibility:visible;display:inline;overflow:visible;enable-background:accumulate" />
      <path
         sodipodi:nodetypes="cccccccc"
         inkscape:connector-curvature="0"
         id="path5183"
         d="m 33.0978,169.08735 -75.893372,24.88939 -0.906013,2.84682 z m -87.414381,28.04816 -61.917689,20.96043 58.494294,-16.93679 z"
         style="color:#000000;fill:#000000;fill-opacity:1;fill-rule:nonzero;stroke:none;stroke-width:1;marker:none;visibility:visible;display:inline;overflow:visible;enable-background:accumulate" />
      <path
         sodipodi:nodetypes="cccccccccccc"
         inkscape:connector-curvature="0"
         id="path5197"
         d="m -37.018658,203.88525 -1.01924,-4.68853 -2.650039,5.91162 5.096225,1.22309 -2.446186,3.87314 3.261574,-0.8154 -3.465427,3.66928 16.919462,-7.74626 8.561652,0.20385 -4.484679,-3.87314 2.242345,-4.28082 z"
         style="color:#000000;fill:#000000;fill-opacity:1;fill-rule:nonzero;stroke:none;stroke-width:1;marker:none;visibility:visible;display:inline;overflow:visible;enable-background:accumulate" />
      <path
         sodipodi:nodetypes="cccccccccc"
         inkscape:connector-curvature="0"
         id="path5199"
         d="m -15.206823,200.82752 2.038492,-4.28083 1.698107,1.91709 5.1897914,-4.80837 -0.568592,4.52207 4.3411467,-2.35424 -2.506507,9.2851 -2.2423335,3.46543 -3.8731206,-2.44619 z"
         style="color:#000000;fill:#000000;fill-opacity:1;fill-rule:nonzero;stroke:none;stroke-width:1;marker:none;visibility:visible;display:inline;overflow:visible;enable-background:accumulate" />
      <path
         sodipodi:nodetypes="ccccccccc"
         inkscape:connector-curvature="0"
         id="path5201"
         d="m -5.2182261,195.52744 8.9693454,-9.58089 -0.6115465,3.87313 3.9430816,1.26831 -1.4968955,2.40097 1.6307985,3.87312 -10.3963027,5.91162 2.0384923,-8.96935 z"
         style="color:#000000;fill:#000000;fill-opacity:1;fill-rule:nonzero;stroke:none;stroke-width:1;marker:none;visibility:visible;display:inline;overflow:visible;enable-background:accumulate" />
      <path
         sodipodi:nodetypes="cccccccccc"
         inkscape:connector-curvature="0"
         id="path5205"
         d="m -12.830587,206.40138 -12.772528,15.62641 8.765505,7.33857 -8.357811,10.80399 16.5117568,-8.56165 4.0769846,-5.70778 -6.9308644,-4.07697 -1.285167,-7.49683 4.5355898,-4.49339 z"
         style="color:#000000;fill:#000000;fill-opacity:1;fill-rule:nonzero;stroke:none;stroke-width:1;marker:none;visibility:visible;display:inline;overflow:visible;enable-background:accumulate" />
      <path
         inkscape:connector-curvature="0"
         id="path5207"
         d="m -3.226217,204.24344 -3.1711443,5.045 9.2251471,13.26115 -5.8817165,8.96729 11.7915765,-6.51686 3.4594302,-7.20715 -14.9908642,-9.51343 z"
         style="color:#000000;fill:#000000;fill-opacity:1;fill-rule:nonzero;stroke:none;stroke-width:1;marker:none;visibility:visible;display:inline;overflow:visible;enable-background:accumulate"
         sodipodi:nodetypes="cccccccc" />
      <path
         sodipodi:nodetypes="ccccccccc"
         inkscape:connector-curvature="0"
         id="path5209"
         d="m -10.865792,255.84661 15.27915,14.70257 -5.18914528,10.09001 16.57643628,10.09 -21.3331528,-7.49543 1.1531434,-10.09 -7.4954326,-7.49544 -10.522433,-3.60357 z"
         style="color:#000000;fill:#000000;fill-opacity:1;fill-rule:nonzero;stroke:none;stroke-width:1;marker:none;visibility:visible;display:inline;overflow:visible;enable-background:accumulate" />
      <path
         sodipodi:nodetypes="ccccccccc"
         inkscape:connector-curvature="0"
         id="path5227"
         d="m 8.305217,198.47772 -10.6665765,5.33329 0.7207147,3.31529 13.8377208,9.80172 4.180145,-9.65758 -4.994149,-7.33004 -2.8113174,-6.23607 -1.8165238,0.95347 z"
         style="color:#000000;fill:#000000;fill-opacity:1;fill-rule:nonzero;stroke:none;stroke-width:1;marker:none;visibility:visible;display:inline;overflow:visible;enable-background:accumulate" />
      <path
         sodipodi:nodetypes="cccccc"
         inkscape:connector-curvature="0"
         id="path5229"
         d="m -7.4063618,210.72987 -4.0360022,3.45943 1.153144,6.63057 8.4051704,5.13662 3.2704062,-3.69519 z"
         style="color:#000000;fill:#000000;fill-opacity:1;fill-rule:nonzero;stroke:none;stroke-width:1;marker:none;visibility:visible;display:inline;overflow:visible;enable-background:accumulate" />
      <path
         sodipodi:nodetypes="ccccccccc"
         inkscape:connector-curvature="0"
         id="path5231"
         d="m 23.524461,214.89309 -3.669279,24.86956 -11.4155315,6.11547 14.6771055,2.85389 -4.484667,11.41553 5.21418,12.70957 15.805341,16.8101 3.850046,-48.27377 z"
         style="color:#000000;fill:#000000;fill-opacity:1;fill-rule:nonzero;stroke:none;stroke-width:1;marker:none;visibility:visible;display:inline;overflow:visible;enable-background:accumulate" />
      <path
         style="color:#000000;fill:#000000;fill-opacity:1;fill-rule:nonzero;stroke:none;stroke-width:1;marker:none;visibility:visible;display:inline;overflow:visible;enable-background:accumulate"
         d="m 24.324615,332.81317 2.911829,-8.46441 13.200742,-4.69603 9.559967,7.94793 0.328139,10.46505 -10.268626,1.25962 z"
         id="path3195-8"
         inkscape:connector-curvature="0"
         sodipodi:nodetypes="ccccccc" />
      <path
         sodipodi:nodetypes="ccccccccc"
         style="color:#000000;fill:#000000;fill-opacity:1;fill-rule:nonzero;stroke:none;stroke-width:1;marker:none;visibility:visible;display:inline;overflow:visible;enable-background:accumulate"
         d="m 24.345198,295.31271 2.423308,10.1127 -4.616696,26.47047 3.418733,-10.17046 12.062047,-3.9974 5.221041,-2.49887 3.295993,-15.56136 -29.958576,-33.0529 z"
         id="path3197-9"
         inkscape:connector-curvature="0" />
      <path
         sodipodi:nodetypes="cccc"
         inkscape:connector-curvature="0"
         id="path5307"
         d="m 46.25,296.07055 -4,-4.75 -0.25,-15.5 z"
         style="color:#000000;fill:#000000;fill-opacity:1;fill-rule:nonzero;stroke:none;stroke-width:1;marker:none;visibility:visible;display:inline;overflow:visible;enable-background:accumulate" />
      <path
         sodipodi:nodetypes="ccccccccccccccc"
         inkscape:connector-curvature="0"
         id="path5309"
         d="m -39.4375,292.08337 -7.96875,28.90625 -4.5625,6.0625 -3.6875,-7.59375 -4.03125,-22.46875 -4.255214,15.6297 1.692714,13.65155 5.03125,8.07732 -5.09375,4.27603 12.234375,-5.74335 7.603125,8.28151 3.975,-3.63638 -5.15625,-6.00513 5.71875,-10.125 z"
         style="color:#000000;fill:#000000;fill-opacity:1;fill-rule:nonzero;stroke:none;stroke-width:1;marker:none;visibility:visible;display:inline;overflow:visible;enable-background:accumulate" />
      <path
         sodipodi:nodetypes="cccccccc"
         inkscape:connector-curvature="0"
         id="path5314"
         d="m -49.497475,334.6488 -15.026019,5.48008 -1.856155,6.18718 12.904699,5.3033 12.28598,-6.89429 3.179907,-6.8197 -4.967042,4.65232 z"
         style="color:#000000;fill:#000000;fill-opacity:1;fill-rule:nonzero;stroke:none;stroke-width:1;marker:none;visibility:visible;display:inline;overflow:visible;enable-background:accumulate" />
      <path
         sodipodi:nodetypes="cccccccccccccccccccccc"
         inkscape:connector-curvature="0"
         id="path5357"
         d="m 4.0599948,75.70485 2.5175743,7.153213 5.1633929,-26.435798 3.989876,-0.300244 1.730636,-7.051128 -3.963894,2.321814 4.518264,-5.644194 1.137715,-4.635392 -3.879619,1.978452 1.179853,-4.807073 3.888546,-4.142248 1.303271,-5.309916 -5.405157,3.939097 2.89168,-16.03642 -3.947773,13.956978 -4.049582,-3.71135 -1.8089225,7.370089 3.5830735,5.612043 -4.6009569,-0.401169 -1.8803779,11.916073 2.7732255,3.593039 z"
         style="color:#000000;fill:#000000;fill-opacity:1;fill-rule:nonzero;stroke:none;stroke-width:1;marker:none;visibility:visible;display:inline;overflow:visible;enable-background:accumulate" />
      <path
         inkscape:connector-curvature="0"
         id="path5359"
         d="m -1.25,251.11218 6.5,-4.25 6.5,9.5 -4,10.5 0.75,-9.25 z"
         style="color:#000000;fill:#000000;fill-opacity:1;fill-rule:nonzero;stroke:none;stroke-width:1;marker:none;visibility:visible;display:inline;overflow:visible;enable-background:accumulate" />
      <path
         sodipodi:nodetypes="cccccccccccccccc"
         inkscape:connector-curvature="0"
         id="path5361"
         d="m -66.5,100.61218 4.25,-3.999998 3.5,-12.75 10,4.5 8.5,-12.5 5.5,4.75 12.75,-7.75 -20.5,-9.25 -6.75,7 -11.75,-0.25 2.75,6.75 -12.75,2.25 3,11.25 -5.5,9.999998 2.25,3.5 z"
         style="color:#000000;fill:#000000;fill-opacity:1;fill-rule:nonzero;stroke:none;stroke-width:1;marker:none;visibility:visible;display:inline;overflow:visible;enable-background:accumulate" />
    </g>
    <g
       id="g5430"
       transform="matrix(0.75100292,0,0,0.54899185,39.979766,168.88352)">
      <path
         sodipodi:nodetypes="ccccccccc"
         inkscape:connector-curvature="0"
         id="path5412"
         d="M -4.1988477,425.87937 -15.50562,548.80155 52.445244,539.10691 82.969648,628.01282 70.992508,491.5044 12.352445,511.63752 24.947333,435.83395 59.340188,393.33212 z"
         style="color:#000000;fill:#000000;fill-opacity:1;fill-rule:nonzero;stroke:none;stroke-width:1;marker:none;visibility:visible;display:inline;overflow:visible;enable-background:accumulate" />
      <path
         sodipodi:nodetypes="ccccccccccc"
         inkscape:connector-curvature="0"
         id="path5414"
         d="m 108.69378,439.70313 10.50066,64.4059 -12.73469,23.12634 -25.530132,-17.21088 -16.420583,-60.23915 -4.166589,41.85038 11.883045,-5.97781 4.784007,45.58091 28.478902,23.43842 45.03963,-37.03284 z"
         style="color:#000000;fill:#000000;fill-opacity:1;fill-rule:nonzero;stroke:none;stroke-width:1;marker:none;visibility:visible;display:inline;overflow:visible;enable-background:accumulate" />
      <path
         inkscape:connector-curvature="0"
         id="path5416"
         d="m 125.04465,447.97634 40.51162,70.46494 -20.27019,22.3186 49.65776,-7.38972 -32.22285,-72.41332 14.64579,-26.48586 z"
         style="color:#000000;fill:#000000;fill-opacity:1;fill-rule:nonzero;stroke:none;stroke-width:1;marker:none;visibility:visible;display:inline;overflow:visible;enable-background:accumulate" />
      <path
         inkscape:connector-curvature="0"
         id="path5418"
         d="m 128.39993,388.85577 3.67197,29.47909 24.59986,-17.24376 -17.00643,-18.20113 z"
         style="color:#000000;fill:#000000;fill-opacity:1;fill-rule:nonzero;stroke:none;stroke-width:1;marker:none;visibility:visible;display:inline;overflow:visible;enable-background:accumulate" />
      <path
         inkscape:connector-curvature="0"
         id="path5420"
         d="m 174.48573,386.28696 15.68473,4.54188 24.59505,132.1717 22.79692,1.4187 8.90071,-17.0522 5.75358,43.46719 -60.39935,-4.84563 13.92978,-12.08143 -34.08374,-65.70236 10.32188,-39.06517 -10.55515,-0.93415 z"
         style="color:#000000;fill:#000000;fill-opacity:1;fill-rule:nonzero;stroke:none;stroke-width:1;marker:none;visibility:visible;display:inline;overflow:visible;enable-background:accumulate"
         sodipodi:nodetypes="cccccccccccc" />
      <path
         inkscape:connector-curvature="0"
         id="path5422"
         d="m 306.67551,340.39985 7.5741,146.85977 -42.93528,-38.63231 -45.54759,44.65943 8.76462,25.13999 10.58649,-20.15275 8.85767,11.54068 2.23391,39.00225 33.96366,12.10137 21.98275,-20.42692 9.73698,22.12022 15.51923,3.44067 -8.3425,-8.07879 -3.35804,-195.38386 18.83134,1.49445 z m -31.52935,148.41366 22.11021,18.8572 -0.39,16.48698 -11.153,11.67505 -17.11255,-4.59371 -8.09231,-15.95137 z"
         style="color:#000000;fill:#000000;fill-opacity:1;fill-rule:nonzero;stroke:none;stroke-width:1;marker:none;visibility:visible;display:inline;overflow:visible;enable-background:accumulate"
         sodipodi:nodetypes="ccccccccccccccccccccccc" />
    </g>
    <g
       id="g5479"
       transform="matrix(0.55504056,0,0,0.55504056,71.79606,-25.42526)">
      <path
         inkscape:connector-curvature="0"
         id="path5438"
         d="m -167,-171.63782 -19,65 38,31.000003 50,-21 -10,-70.000003 -13,49 -18,17 -24,-16 z"
         style="color:#000000;fill:#000000;fill-opacity:1;fill-rule:nonzero;stroke:none;stroke-width:1;marker:none;visibility:visible;display:inline;overflow:visible;enable-background:accumulate" />
      <path
         sodipodi:nodetypes="cccccccccccccccccccc"
         inkscape:connector-curvature="0"
         id="path5440"
         d="m -104.625,-178.90625 -10.0625,12.15625 0.51532,9.59927 7.23284,-14.07046 11.982837,61.57474 3.646447,15.02145 -9.354454,5.154778 -7.24174,7.845222 21,11 16,-15 -16,-58 25,-12 12.65625,64.125 9.53125,19 8.09375,-17.21875 -2.28125,-63.90625 -28,-23 -29,17 1.8125,-11.0625 z"
         style="color:#000000;fill:#000000;fill-opacity:1;fill-rule:nonzero;stroke:none;stroke-width:1;marker:none;visibility:visible;display:inline;overflow:visible;enable-background:accumulate" />
      <path
         sodipodi:nodetypes="ccccccccccccccccccc"
         inkscape:connector-curvature="0"
         id="path5442"
         d="m -27.9375,-174.46875 -6.885723,17.72779 3.7454,3.11596 0.943782,45.04994 5.040291,15.76256 44.1875,12.75 27.9375,-17.34375 -31.359163,-1.266272 -28.049654,-12.614298 2.7594194,-17.21318 45.3368976,-14.84375 -24.0625,-25.8125 z m 12.294096,12.68708 16.999565,2.63741 7.1468305,10.00984 -21.5492195,8.87115 -9.58519,-8.3125 z"
         style="color:#000000;fill:#000000;fill-opacity:1;fill-rule:nonzero;stroke:none;stroke-width:1;marker:none;visibility:visible;display:inline;overflow:visible;enable-background:accumulate" />
      <path
         sodipodi:nodetypes="cccccccccccccccccccc"
         inkscape:connector-curvature="0"
         id="path5444"
         d="m 43.125,-209.125 -8.46875,23.34375 -21.9375,1.0625 -5.34375,9.4375 24.09375,5.75 0.645527,19.29657 6.256123,6.18382 -6.33915,4.39001 c 1.542695,25.55503 0.333333,12.68168 0.5,20.34835 l 12.078453,16.76355 8.323525,1.93165 -1.308228,7.8048 47.375,-2.46875 -32.53125,-4.9375 -10.25,-20.5 -2.125,-49.5 18.75,-3.1875 6.34375,-12.375 -24.03125,2.46875 z"
         style="color:#000000;fill:#000000;fill-opacity:1;fill-rule:nonzero;stroke:none;stroke-width:1;marker:none;visibility:visible;display:inline;overflow:visible;enable-background:accumulate" />
      <path
         sodipodi:nodetypes="cccccccccccccccccc"
         inkscape:connector-curvature="0"
         id="path5446"
         d="M 94.40625,-177.125 64,-133.46875 l 14.43842,32.32782 23.74356,6.036457 -20.86948,2.291973 44.1875,12.75 27.9375,-17.34375 -30.5625,1.4375 -23.875,-7.96875 -11.3125,-29.875 66.28125,2.84375 -19.4375,-32.90625 z m 9.375,13.96875 24.375,10.96875 3.71875,12.46875 -43.65625,-6.125 z"
         style="color:#000000;fill:#000000;fill-opacity:1;fill-rule:nonzero;stroke:none;stroke-width:1;marker:none;visibility:visible;display:inline;overflow:visible;enable-background:accumulate" />
    </g>
    <g
       id="g5486"
       transform="matrix(0.55504056,0,0,0.55504056,71.79606,-25.42526)">
      <path
         id="path5448"
         d="m 236.1875,-191.4375 -41.71875,34.65625 -3.5625,47.375 45.28125,21.90625 32.5,-24.75 1.4375,24.0625 24.03125,1.40625 -10.59375,-15.5625 7.0625,-76.375 -26.875,0 3.53125,12.75 -31.09375,-25.46875 z m -2.6875,31.3125 13.5,28.5 -19,20 -8.5,-35.5 14,-13 z"
         style="color:#000000;fill:#000000;fill-opacity:1;fill-rule:nonzero;stroke:none;stroke-width:1;marker:none;visibility:visible;display:inline;overflow:visible;enable-background:accumulate"
         inkscape:connector-curvature="0" />
      <path
         sodipodi:nodetypes="cccccccccccccc"
         inkscape:connector-curvature="0"
         id="path5450"
         d="m 279.3125,-232.4375 -1.875,44.71875 22.1875,3.5 -9.0625,80.375 7.09375,20.537638 -30.35825,-1.790918 -1.26675,3.75656 80.4375,-4.03453 17.6875,7.0625 0.71875,-33.9375 -15.5625,14.84375 -48.78125,-13.4375 26.15625,-120.1875 z"
         style="color:#000000;fill:#000000;fill-opacity:1;fill-rule:nonzero;stroke:none;stroke-width:1;marker:none;visibility:visible;display:inline;overflow:visible;enable-background:accumulate" />
    </g>
    <path
       style="color:#000000;fill:#000000;fill-opacity:1;fill-rule:nonzero;stroke:none;stroke-width:1;marker:none;visibility:visible;display:inline;overflow:visible;enable-background:accumulate"
       d="m -4.2426408,-120.72797 9.1923883,-20.5061 14.8492425,-14.84924 14.142136,16.26346 -22.627417,1.41421 z"
       id="path5490"
       inkscape:connector-curvature="0"
       sodipodi:nodetypes="cccccc" />
    <text
       xml:space="preserve"
       style="font-size:41.07870483px;font-style:normal;font-variant:normal;font-weight:bold;font-stretch:normal;text-align:center;text-anchor:middle;color:#000000;fill:#000000;fill-opacity:1;fill-rule:nonzero;stroke:none;stroke-width:1;marker:none;visibility:visible;display:inline;overflow:visible;enable-background:accumulate;font-family:Cantarell;-inkscape-font-specification:Cantarell Bold"
       x="133.97176"
       y="555.99652"
       id="text5492"><tspan
         sodipodi:role="line"
         id="tspan5494"
         x="133.97176"
         y="555.99652">No importa la herramienta.</tspan><tspan
         sodipodi:role="line"
         x="133.97176"
         y="607.34491"
         id="tspan5496">Lo importante es hacer videojuegos!</tspan><tspan
         sodipodi:role="line"
         x="133.97176"
         y="658.6933"
         id="tspan5498" /><tspan
         sodipodi:role="line"
         x="133.97177"
         y="710.04169"
         id="tspan5500">Comenzaremos aprendiendo unity</tspan><tspan
         sodipodi:role="line"
         x="133.97174"
         y="761.39001"
         id="tspan5502">y también estudiaremos diseño</tspan><tspan
         sodipodi:role="line"
         x="133.97176"
         y="812.7384"
         id="tspan5504">de videojuegos.</tspan><tspan
         sodipodi:role="line"
         x="133.97176"
         y="864.08679"
         id="tspan5506" /><tspan
         sodipodi:role="line"
         x="133.97176"
         y="915.43518"
         id="tspan5508">lvl required to join:</tspan><tspan
         sodipodi:role="line"
         x="133.97176"
         y="966.78357"
         id="tspan5510">n00b</tspan></text>
  </g>
</svg>
